<svg width="23" height="15" viewBox="0 0 23 15" fill="none" xmlns="http://www.w3.org/2000/svg">
<g id="Group">
<path id="Vector" d="M22.105 7.50002C22.105 7.32952 22.0019 7.10313 21.8973 6.99326L16.0027 0.730038C15.7275 0.445508 15.2816 0.412534 14.9608 0.7013C14.6739 0.959451 14.6668 1.46293 14.932 1.74326L19.6638 6.76304L0.736836 6.76304C0.329881 6.76304 -3.23774e-07 7.09292 -3.05985e-07 7.49988C-2.88197e-07 7.90683 0.329881 8.23675 0.736836 8.23675L19.6638 8.23675L14.932 13.2565C14.6668 13.5368 14.6856 14.0279 14.9608 14.2984C15.2513 14.584 15.7317 14.5586 16.0027 14.2697L21.8973 8.00653C22.0705 7.83665 22.1021 7.67303 22.105 7.50002Z" fill="#E4BB89"/>
</g>
</svg>
