<svg width="44" height="40" viewBox="0 0 44 40" fill="none" xmlns="http://www.w3.org/2000/svg">
<path d="M6.06647 30.7736L12.4569 39.3851H8.78867L4.20266 33.0699L3.58831 34.3772V39.1279C3.59463 39.2184 3.58488 39.3092 3.55953 39.3963H0.00585938V17.6211H3.58338V29.0528L7.87579 23.3505H11.8104L6.06647 30.7736Z" fill="white"/>
<path d="M14.3937 21.2573C14.1867 21.0554 14.0233 20.8128 13.9136 20.5447C13.804 20.2766 13.7504 19.9888 13.7563 19.699C13.7524 19.4138 13.807 19.1309 13.9167 18.8678C14.0263 18.6047 14.1887 18.3671 14.3937 18.1696C14.8073 17.7599 15.365 17.5303 15.946 17.5303C16.527 17.5303 17.0847 17.7599 17.4983 18.1696C17.7031 18.3672 17.8653 18.6049 17.9749 18.868C18.0845 19.131 18.1393 19.4139 18.1357 19.699C18.1343 20.1337 18.0049 20.5582 17.7639 20.9192C17.5229 21.2803 17.181 21.5618 16.7811 21.7283C16.3813 21.8948 15.9413 21.939 15.5165 21.8552C15.0917 21.7714 14.7011 21.5634 14.3937 21.2573ZM17.9576 39.4165H14.0824V23.2905H17.9576V39.4165Z" fill="white"/>
<path d="M19.6152 17.6211H23.4905V22.4602H27.0423L26.1265 25.9036H23.4903V39.2968H19.6152V17.6211Z" fill="white"/>
<path d="M29.7918 24.6862C31.1273 23.7506 32.7186 23.253 34.347 23.2618C35.5527 23.2847 36.7397 23.5651 37.8291 24.0842C39.0828 24.6746 40.147 25.6052 40.9015 26.7709C41.8071 28.1115 42.2909 29.6943 42.2901 31.3141C42.2911 31.7413 42.2616 32.168 42.2019 32.5909L42.1427 32.562V32.5909L29.9092 32.9115C30.1379 33.5511 30.5012 34.1338 30.9745 34.6197C31.4406 35.0989 32.0064 35.4689 32.6314 35.7032C33.1609 35.9035 33.7227 36.0038 34.2884 35.9992C34.9546 35.9997 35.6138 35.863 36.2252 35.5975C36.832 35.3414 37.3733 34.9507 37.8084 34.4547L41.0324 35.7024C40.3079 36.826 39.3102 37.7457 38.1334 38.3748C36.9543 39.0225 35.631 39.3598 34.287 39.3553C33.0734 39.3379 31.878 39.0574 30.7824 38.5331C29.5877 37.9851 28.5671 37.0799 27.7204 35.8176C26.7951 34.4846 26.299 32.899 26.2988 31.2743C26.3037 30.2994 26.4841 29.3334 26.8313 28.4229C27.4085 26.8993 28.443 25.5935 29.7918 24.6862ZM29.8798 29.8262L38.667 29.6198C38.451 29.0101 38.1009 28.4572 37.6429 28.002C36.7647 27.1305 35.5779 26.6446 34.3431 26.6514C33.3957 26.6457 32.4683 26.925 31.6803 27.4531C30.8791 27.9779 30.2674 28.7477 29.9358 29.6487L29.8798 29.8262Z" fill="white"/>
<path d="M26.0895 14.9575C28.4589 16.3335 30.1976 18.586 30.9336 21.2329L43.223 0L19.6152 13.5965C21.8631 13.3358 24.1346 13.8133 26.0895 14.9575Z" fill="white"/>
<path d="M39.5353 22.7919C37.1698 21.4096 34.3597 21.0104 31.7051 21.6797L43.9945 0.448242L43.9227 27.7627C43.0334 25.6735 41.4941 23.9296 39.5353 22.7919Z" fill="#959595"/>
</svg>
