<svg width="41" height="84" viewBox="0 0 41 84" fill="none" xmlns="http://www.w3.org/2000/svg">
<g clip-path="url(#clip0_1253_3025)">
<path d="M0 42.6909H19.8167V62.7238H0V42.6909Z" fill="#676767"/>
<path d="M5.05664 45.8686V53.7436C5.05664 57.8884 7.10664 59.4081 9.83997 59.4081C12.71 59.4081 14.76 57.7502 14.76 53.6055V45.7305H13.12V53.7436C13.12 56.6449 11.7533 58.0265 9.83997 58.0265C8.06331 58.0265 6.69664 56.7831 6.69664 53.7436V45.8686H5.05664Z" fill="white"/>
<path d="M21.0469 42.6909H40.8635V62.7238H21.0469V42.6909Z" fill="#676767"/>
<path d="M27.6069 59.4077V53.7432C27.6069 51.5327 27.6069 49.8748 27.4702 48.2169C28.1536 49.7366 28.9736 51.2564 29.9302 52.6379L34.1669 59.4077H35.9436V46.1445H34.4402V51.809C34.4402 53.8814 34.4402 55.5393 34.7136 57.3353C34.1669 55.9537 33.3469 54.5722 32.3902 52.9143L28.1536 46.1445H26.2402V59.5458L27.6069 59.4077Z" fill="white"/>
<path d="M21.0469 63.9673H40.8635V84.0002H21.0469V63.9673Z" fill="#676767"/>
<path d="M34.303 68.2498C33.483 67.559 32.253 67.1445 30.4763 67.1445C29.1096 67.1445 28.0163 67.2827 27.1963 67.4208V80.684H28.8363V75.2958C29.2463 75.434 29.6563 75.434 30.203 75.434C31.843 75.434 33.3463 74.8814 34.1663 73.9143C34.8496 73.2235 35.2596 72.2564 35.2596 71.013C35.533 69.9077 35.123 68.9406 34.303 68.2498Z" fill="white"/>
<path d="M30.4767 74.0528C29.93 74.0528 29.3833 74.0528 28.9733 73.9147V68.8028C29.2467 68.8028 29.7933 68.6647 30.6133 68.6647C32.5267 68.6647 33.7567 69.4936 33.7567 71.2897C33.7567 73.0857 32.5267 74.0528 30.4767 74.0528ZM0 63.9673H19.8167V84.0002H0V63.9673Z" fill="#676767"/>
<path d="M13.9399 68.8024C12.8466 67.6972 11.0699 67.1445 8.60992 67.1445C7.24326 67.1445 6.01326 67.2827 4.91992 67.4208V80.684C5.73992 80.8222 6.83326 80.8222 8.06326 80.8222C10.6599 80.8222 12.7099 80.1314 13.9399 78.888C15.1699 77.6445 15.8533 75.8485 15.8533 73.7761C15.8533 71.4274 15.1699 69.9077 13.9399 68.8024Z" fill="white"/>
<path d="M8.47333 79.3026C7.79 79.3026 7.10667 79.3026 6.69667 79.1645V68.6645C7.10667 68.5263 7.79 68.3882 8.74667 68.3882C12.4367 68.3882 14.0767 70.3224 14.0767 73.5C14.0767 77.2303 12.0267 79.4408 8.47333 79.3026ZM0 0H41V41.4474H0V0Z" fill="#676767"/>
<path d="M35.1229 21.5527C34.5763 22.3817 33.7563 23.0725 33.3463 24.0396C33.3463 23.3488 33.4829 22.5198 33.2096 21.9672C32.7996 20.5856 32.3896 19.3422 32.2529 17.6843V17.1317C32.5263 18.6514 34.0296 19.7567 33.8929 21.4146C33.8929 21.829 33.7563 22.2435 33.6196 22.5198V22.3817C33.8929 21.5527 33.8929 20.7238 34.3029 19.8948C34.8496 18.7896 35.3963 17.6843 35.1229 16.3027C36.2163 17.9606 35.9429 20.033 35.1229 21.5527Z" fill="white"/>
<path d="M34.3035 12.9869C35.2602 14.3684 35.5335 16.4408 34.7135 17.9605C34.4402 18.6513 34.3035 19.3421 34.1669 20.0329C34.1669 19.8948 34.1669 19.7566 34.0302 19.6184C33.7569 18.0987 32.2535 16.9934 31.7069 15.75C31.4335 15.3355 31.4335 14.9211 31.2969 14.2303C31.8435 15.3356 33.3469 15.8882 33.8935 17.2698C34.1669 17.5461 34.0302 17.9606 34.1669 18.375C33.8935 16.9934 34.0302 15.75 34.1669 14.5066C34.1669 13.8158 34.0302 13.125 33.7569 12.5724C33.8935 12.4342 34.0302 12.7105 34.3035 12.9869Z" fill="white"/>
<path d="M33.6197 12.7105C33.8931 13.8157 33.4831 14.921 33.7564 16.1644C33.0731 14.921 31.8431 14.3684 30.8864 13.4013C30.3397 12.8486 30.0664 12.0197 30.0664 11.3289C30.6131 12.5723 31.9797 12.8486 32.7997 13.9539C33.0731 14.2302 33.0731 14.5065 33.3464 14.7828C32.9364 13.8157 32.6631 12.7105 32.5264 11.4671L31.7064 10.2236C32.5264 10.4999 33.3464 11.6052 33.6197 12.7105Z" fill="white"/>
<path d="M30.7503 10.0855C31.5703 10.9145 31.8436 11.7434 32.117 12.7105L32.2536 12.9868C31.1603 12.1579 30.067 10.9145 29.247 9.80921L28.427 8.84211C29.1103 9.11842 30.067 9.39474 30.7503 10.0855ZM15.5803 9.11842C17.0836 8.28947 18.8603 8.01316 20.5003 7.875C24.6003 7.875 28.5636 10.3618 30.3403 14.0921C31.4336 16.3026 31.8436 19.3421 31.1603 21.8289C30.3403 24.8684 27.8803 27.7697 25.0103 29.0132C21.7303 30.5329 17.2203 30.2566 14.3503 28.1842C10.387 25.5592 8.74697 20.7237 9.97697 16.0263C10.6603 13.2632 12.847 10.3618 15.5803 9.11842ZM12.437 9.11842C11.617 9.80921 11.0703 10.7763 10.387 11.6053C9.8403 12.1579 9.15697 12.7105 8.47363 13.2632C8.88363 12.4342 8.88363 11.6053 9.4303 11.0526C10.1136 9.80921 11.3436 9.53289 12.437 9.11842Z" fill="white"/>
<path d="M7.92645 11.6053C8.19978 11.0527 8.74645 10.7763 9.42978 10.6382C8.33645 11.4671 8.47311 12.7106 8.06311 13.954C7.92645 14.2303 7.78978 14.7829 7.65311 15.0592C7.92645 14.6448 8.19978 14.2303 8.47311 13.6777C9.29311 12.8487 10.3864 12.4342 10.7964 11.329C10.7964 12.8487 9.56645 13.954 8.33645 14.7829C7.78978 15.1974 7.37978 15.6119 7.10645 16.3027V15.1974C7.24311 13.954 7.10645 12.4342 7.92645 11.6053Z" fill="white"/>
<path d="M5.87707 15.8881C5.87707 14.5065 6.42373 13.5394 7.10707 12.5723C6.28707 13.8157 6.9704 15.4736 6.83373 16.8552L6.69707 18.3749C6.69707 18.1907 6.74262 18.0065 6.83373 17.8223C7.10707 16.5788 8.06373 15.7499 8.88373 14.9209C9.15707 14.6446 9.15707 14.5065 9.29373 14.2302C9.15707 14.7828 9.0204 15.4736 8.74707 16.0262C8.06373 17.4078 6.69707 18.5131 6.5604 20.0328C6.69707 18.6512 5.60373 17.4078 5.87707 15.8881Z" fill="white"/>
<path d="M5.19303 17.8225L5.60303 16.5791C5.3297 18.237 6.42303 19.6186 6.83303 21.0002L7.24303 22.658C6.69637 21.1383 7.51637 19.6186 8.33637 18.237C8.6097 17.9607 8.6097 17.5462 8.74637 17.1317C8.88303 17.8225 8.6097 18.6515 8.47303 19.3423C8.1997 20.1712 7.92637 21.2765 7.65303 22.1054C7.3797 22.658 7.51637 23.3488 7.65303 23.9015C7.10637 22.7962 5.87637 21.8291 5.60303 20.5857C5.19303 19.8949 4.9197 18.7896 5.19303 17.8225Z" fill="white"/>
<path d="M5.05664 21.1382C5.19331 22.9342 7.10664 23.9013 8.06331 25.5592C8.33664 25.8355 8.47331 26.1118 8.88331 26.3882C8.88331 26.1118 8.60997 26.1118 8.60997 25.8355C8.33664 25.1447 8.19997 24.4539 8.33664 23.7632C8.47331 22.9342 8.74664 21.9671 8.60997 21C9.42997 22.6579 9.15664 24.8684 9.56664 26.6645C9.70331 27.0789 9.83997 27.4934 10.1133 27.7697C8.47331 26.6645 6.28664 25.6974 5.60331 23.4868C5.05664 22.7961 5.05664 21.9671 5.05664 21.1382Z" fill="white"/>
<path d="M6.15039 25.2829C6.97039 27.3553 9.43039 27.4934 10.7971 28.7369C10.9337 29.0132 11.3437 29.2895 11.6171 29.2895C11.3437 29.0132 10.7971 28.5987 10.6604 28.1842C9.84039 26.9408 10.1137 25.1448 9.43039 23.7632C9.97706 24.5921 10.5237 25.2829 10.9337 26.25C11.4804 27.6316 11.7537 29.1513 12.9837 30.1184C11.6171 29.704 9.97706 29.8421 8.74706 29.0132C7.51706 28.1842 6.28706 26.9408 6.15039 25.2829Z" fill="white"/>
<path d="M8.47363 29.2897C9.97697 30.9476 12.3003 30.3949 14.2136 30.8094C14.487 30.8094 14.7603 30.9476 15.0336 30.9476C14.7603 30.8094 14.487 30.8094 14.2136 30.6713C12.7103 30.1186 12.437 28.5989 11.617 27.3555C12.7103 28.0463 13.5303 29.0134 14.487 29.9805C15.1703 30.5331 15.9903 30.8094 16.947 31.0857C16.6736 31.2239 16.4003 31.0857 16.127 31.2239C14.487 31.6384 12.847 32.191 11.0703 31.6384C10.1136 31.0857 9.0203 30.2568 8.47363 29.2897Z" fill="white"/>
<path d="M28.1536 33.0197C26.5136 33.5724 24.8736 33.0197 23.5069 32.0526C22.9603 31.7763 22.5503 31.2237 21.8669 31.2237H21.1836C22.4136 31.7763 23.6436 32.6053 24.6003 33.7105C24.3269 33.9868 24.1903 34.125 23.9169 34.2632C22.9603 33.1579 21.8669 32.1908 20.5003 31.5C20.2269 31.5 20.0903 31.7763 19.8169 31.7763C18.8603 32.4671 17.7669 33.296 17.0836 34.4013L16.4003 33.7105C17.4936 32.6053 18.5869 31.7763 19.8169 31.2237C18.5869 30.8092 17.7669 31.9145 16.8103 32.4671C15.7169 33.296 14.2136 33.5724 12.8469 33.0197C12.0269 32.7434 11.3436 32.3289 10.9336 31.6382C12.0269 32.4671 13.5303 32.4671 14.7603 31.9145C16.4003 31.2237 18.0403 30.3947 19.9536 30.8092C20.2269 30.8092 20.5003 31.0855 20.7736 30.8092C22.2769 30.5329 23.7803 30.6711 25.1469 31.3618L26.5136 31.9145C27.7436 32.3289 29.1103 32.1908 30.3403 31.5C29.5203 32.3289 28.9736 32.8816 28.1536 33.0197Z" fill="white"/>
<path d="M29.9304 31.362C28.0171 32.0528 26.2404 31.2239 24.4638 30.9475H24.1904C25.0104 30.6712 25.8304 30.5331 26.5138 29.8423C27.4704 28.8752 28.4271 27.9081 29.5204 27.2173C28.7004 28.3225 28.7004 29.8423 27.3338 30.5331C27.0604 30.8094 26.5138 30.8094 26.2404 30.9475C26.7871 30.9475 27.0604 30.6712 27.7438 30.6712C29.5204 30.3949 31.5704 30.6712 32.8004 29.1515C32.1171 30.1186 30.8871 31.0857 29.9304 31.362Z" fill="white"/>
<path d="M30.8866 29.4277C30.0666 29.704 28.9733 29.704 28.0166 30.1184C29.5199 28.7369 29.5199 26.6645 30.4766 25.1448C30.7499 24.7303 31.0233 24.3158 31.4333 23.7632C30.7499 25.0066 31.1599 26.6645 30.3399 27.9079C30.0666 28.4606 29.6566 28.875 29.2466 29.2895C29.3833 29.2895 29.5199 29.1513 29.6566 29.0132C30.8866 27.9079 32.2533 27.4934 33.6199 26.5263C34.1666 26.1119 34.5766 25.6974 34.8499 25.0066C34.7133 27.079 32.6633 28.875 30.8866 29.4277Z" fill="white"/>
<path d="M33.2102 26.1118C32.3902 26.5263 31.7068 26.9407 31.1602 27.6315C32.2535 25.8355 31.7068 23.3486 32.3902 21.4144L32.6635 20.7236C32.5268 21.9671 33.0735 22.9342 32.9368 24.1776C32.9368 25.0065 32.6635 25.5592 32.2535 26.2499C32.8002 25.5592 33.0735 24.7302 33.7568 24.1776C34.7135 23.3486 35.6702 22.2434 35.8068 20.9999C36.2168 23.0723 34.9868 25.0065 33.2102 26.1118Z" fill="white"/>
<path d="M25.0098 25.9737C25.4198 25.6973 25.8298 25.421 26.1031 25.1447H25.8298C25.5564 25.1447 25.5564 24.8684 25.5564 24.8684L24.8731 24.1776V24.0394C24.8731 24.1776 24.7364 24.3158 24.5998 24.3158C24.5998 24.4539 24.5998 24.5921 24.7364 24.5921C25.0098 24.7302 25.2831 24.8684 25.2831 25.0066C25.1464 25.2829 24.7364 25.421 25.0098 25.8355C25.1464 25.8355 24.8731 25.8355 25.0098 25.9737ZM21.1831 16.9934C21.3198 17.1316 21.4564 16.9934 21.4564 16.8552C21.5931 16.8552 21.7298 16.9934 21.7298 17.1316H22.0031C22.0031 16.7171 22.6864 16.8552 22.8231 16.3026H22.6864C22.6864 16.3026 22.5498 16.3026 22.5498 16.1644L22.8231 15.8881C22.2764 15.6118 21.8664 15.3355 21.3198 15.1973C21.0464 15.1973 20.9098 15.1973 20.6364 15.0592C20.7731 15.3355 20.6364 15.8881 20.7731 16.1644L21.0464 16.3026C21.1831 16.0263 21.3198 16.0263 21.4564 15.8881H21.7298V16.3026C21.7298 16.8552 21.3198 16.8552 21.1831 16.9934ZM26.9231 20.7237C26.6498 21.5526 26.3764 22.2434 25.9664 22.796C25.6931 23.0723 25.6931 23.3487 25.4198 23.4868L25.9664 23.9013V23.7631C25.9664 23.7631 25.9664 23.625 26.1031 23.625C26.3764 23.625 26.3764 23.9013 26.3764 23.9013C26.3764 24.1776 26.5131 24.1776 26.5131 24.4539C27.8798 22.9342 28.5631 21.1381 28.6998 19.2039L28.8364 19.0658H27.1964C27.1964 19.3421 27.1964 19.7566 27.0598 20.0329L27.3331 20.3092V20.5855C27.1509 20.7697 27.0142 20.8158 26.9231 20.7237ZM25.5564 15.8881C25.2831 15.6118 25.1464 15.1973 24.7364 14.921C24.1898 15.4737 23.6431 16.0263 23.2331 16.5789L23.3698 16.7171C23.3698 16.5789 23.5064 16.4408 23.5064 16.4408C23.6431 16.1644 23.7798 16.4408 24.0531 16.4408H24.8731C25.1464 16.5789 25.1464 16.7171 25.2831 16.8552V17.1316C25.2831 17.546 25.5564 16.9934 25.6931 17.1316C25.8298 17.1316 25.9664 17.1316 25.9664 17.2697C25.9664 17.546 26.2398 17.4079 26.2398 17.546C26.2398 17.6842 26.1031 17.6842 26.1031 17.6842C26.1031 17.9605 25.8298 17.9605 25.9664 18.0987C26.2398 18.0987 26.2398 17.8223 26.3764 17.6842C26.2398 17.4079 26.2398 17.1316 26.1031 16.8552C25.8298 16.8552 25.8298 16.5789 25.6931 16.5789C25.2831 16.3026 25.6931 16.1644 25.5564 15.8881ZM20.7731 27.3552C21.1831 27.2171 21.5931 27.2171 22.1398 27.0789C22.0031 27.0789 21.8664 27.0789 21.8664 26.9408C21.5931 26.9408 21.5931 26.6644 21.4564 26.3881C21.4564 26.25 21.4564 26.1118 21.5931 25.9737C21.4564 25.6973 21.1831 25.9737 20.9098 25.8355C20.9098 25.8355 20.7731 25.6973 20.6364 25.6973L20.7731 25.8355V27.3552ZM21.1831 23.0723C21.3198 23.0723 21.1831 23.3487 21.3198 23.3487C21.5931 23.2105 21.7298 23.625 21.8664 23.3487C21.8664 23.0723 22.1398 23.0723 22.2764 23.0723C22.5498 22.9342 22.8231 22.796 22.8231 22.3816C22.5498 22.3816 22.5498 22.5197 22.5498 22.6579C22.4131 22.796 22.2764 22.3816 22.2764 22.5197V22.6579C22.0031 22.9342 22.0031 22.5197 21.8664 22.6579V22.796C21.7298 22.5197 21.5931 22.6579 21.4564 22.5197H21.1831C21.1831 22.6579 20.9098 22.5197 20.9098 22.6579C20.7731 22.6579 20.7731 22.9342 20.6364 22.9342C20.3631 22.9342 20.3631 23.2105 20.2264 23.0723V23.2105H20.4998C20.6364 22.9342 20.9098 23.2105 21.1831 23.0723ZM22.6864 21C22.6864 21.1381 22.6864 21.2763 22.8231 21.2763C23.0964 21.2763 22.9598 21.5526 23.0964 21.5526C23.2331 21.5526 23.0964 21.4144 23.0964 21.2763C23.0964 21 22.9598 21 22.6864 21C22.7775 21 22.7775 21 22.6864 21C22.7775 20.9079 22.7775 20.9079 22.6864 21ZM22.5498 13.2631C22.0031 12.9868 21.4564 12.9868 20.7731 12.9868V14.6447H20.9098C21.7298 14.7829 22.6864 15.0592 23.3698 15.6118V15.75C23.6431 15.4737 23.9164 15.0592 24.1898 14.7829L24.4631 14.6447H24.3264C23.7798 13.9539 23.0964 13.5394 22.5498 13.2631ZM12.2998 19.4802L12.4364 20.4473C12.4364 20.7237 12.7098 21.2763 12.7098 21.5526C12.7098 21.4144 12.7098 21.2763 12.9831 21.2763C12.9831 21.1381 13.1198 21 12.9831 21C12.9831 20.7237 13.1198 20.4473 13.2564 20.171C13.5298 20.171 13.5298 19.8947 13.8031 19.7566C13.9398 19.7566 14.0764 20.0329 14.0764 20.0329C13.8031 19.7566 13.8031 19.4802 13.9398 19.2039H12.1631L12.2998 19.4802ZM22.1398 22.1052C22.2764 21.9671 22.5498 21.9671 22.5498 21.8289C22.4131 21.6908 22.4131 21.8289 22.1398 22.1052C22.0031 22.1052 22.0031 21.9671 22.1398 22.1052ZM25.5564 19.2039L25.8298 19.4802C26.1031 19.6184 25.8298 19.7566 26.1031 19.8947C26.3764 20.0329 26.3764 20.171 26.3764 20.4473V20.3092C26.5131 20.0329 26.3764 19.6184 26.5131 19.4802C26.2398 19.3421 25.8298 19.3421 25.5564 19.2039ZM23.3698 23.2105C23.6431 23.2105 23.6431 23.4868 23.9164 23.4868C24.1898 23.3487 24.4631 23.4868 24.5998 23.3487C24.5998 23.0723 24.7364 23.0723 24.8731 22.796C25.0098 22.9342 25.0098 23.0723 25.0098 23.2105C25.1464 22.9342 25.2831 22.9342 25.4198 22.6579C25.6931 22.1052 26.1031 21.5526 26.2398 21C26.1031 21 25.9664 21 25.8298 21.1381C25.6931 21.1381 25.5564 21.2763 25.2831 21.1381H25.1464C25.1464 21.2763 25.0098 21.4144 24.8731 21.2763C24.7364 21.2763 24.7364 21.1381 24.7364 21V21.2763C24.5998 21.4144 24.5998 21.5526 24.4631 21.5526C24.3264 21.6908 24.1898 21.6908 24.0531 21.8289C24.0531 22.1052 23.7798 22.1052 23.6431 22.1052H23.9164C24.1898 22.1052 24.1898 21.8289 24.1898 21.8289C24.3264 21.8289 24.4631 21.6908 24.4631 21.8289C24.5998 21.9671 24.5998 22.1052 24.5998 22.3816C24.4631 22.5197 24.5998 22.6579 24.4631 22.9342C24.4631 23.2105 24.1898 23.2105 24.1898 23.3487C24.0531 23.4868 23.9164 23.4868 23.9164 23.4868C23.5064 23.2105 23.0964 23.2105 22.5498 23.2105C22.5498 23.2105 22.4131 23.2105 22.5498 23.3487C22.9598 23.0723 23.0964 23.0723 23.3698 23.2105ZM20.0898 28.046C17.9031 27.9079 15.9898 27.2171 14.4864 25.5592L13.3931 26.6644C15.0331 28.1842 17.0831 29.1513 19.2698 29.2895C19.5431 29.2895 20.0898 29.2894 20.3631 29.4276L20.2264 29.2895L20.0898 28.046ZM17.9031 22.1052C18.4498 22.5197 19.1331 22.9342 19.9531 22.9342V22.5197C19.9531 22.3816 20.2264 22.3816 20.2264 22.3816C20.2264 22.3816 20.3631 22.2434 20.2264 22.2434C20.0898 22.2434 20.0898 21.9671 20.0898 21.9671C20.0898 21.9671 20.2264 21.9671 20.2264 21.8289C20.0898 21.6908 20.2264 21.5526 20.2264 21.5526L20.3631 21.4144C20.0898 21.5526 19.6798 21.4144 19.4064 21.1381L19.1331 20.8618L17.9031 22.1052ZM17.3564 20.3092C17.2653 20.3092 17.2653 20.3092 17.3564 20.3092H17.0831C17.0831 20.0329 16.8098 20.171 16.6731 20.0329L17.0831 20.8618C17.2198 21.1381 17.3564 21.2763 17.4931 21.5526C17.6298 21.2763 17.7664 21.2763 17.9031 21V20.7237C17.9031 20.5855 17.9031 20.4473 17.7664 20.4473C17.6298 20.4473 17.7664 20.7237 17.7664 20.7237H17.6298C17.4931 20.7237 17.3564 20.5855 17.3564 20.4473C17.4931 20.4473 17.3564 20.4473 17.3564 20.3092ZM18.4498 20.4473C18.4498 20.5855 18.3131 20.7237 18.1764 20.7237C18.3131 20.5855 18.4498 20.4473 18.5864 20.4473H18.4498ZM20.0898 25.8355C18.7231 25.8355 17.6298 25.2829 16.5364 24.4539C16.5364 24.5921 16.8098 24.7302 16.6731 24.7302C16.5364 24.8684 16.3998 24.8684 16.2631 24.8684C15.9898 24.8684 15.7164 25.1447 15.4431 25.1447C15.1698 25.2829 15.1698 24.8684 14.8964 24.8684C16.3998 26.25 18.1764 26.9408 20.2264 27.0789L20.3631 27.2171V25.5592L20.0898 25.8355Z" fill="#676767"/>
<path d="M14.0766 25.1448C13.8032 25.0067 13.8032 24.8685 13.5299 24.5922C13.2566 24.5922 13.2566 24.3159 13.1199 24.3159V24.0396V24.1777C12.8466 24.3159 12.8466 24.0396 12.7099 23.9014C12.4366 23.7632 12.5732 23.3488 12.2999 23.4869C12.1632 23.4869 12.1632 23.3488 12.0266 23.3488C11.7532 23.3488 11.7532 23.0724 11.7532 23.0724V23.2106C11.4799 23.2106 11.4799 22.9343 11.3432 22.9343H11.2066C11.0699 22.7961 10.9332 22.658 10.9332 22.3817C10.6599 22.1053 10.7966 21.829 10.9332 21.5527C10.9332 21.5527 11.0699 21.4146 11.0699 21.2764C11.0699 21.1382 11.3432 21.1382 11.3432 21.1382C11.3432 21.1382 11.4799 21.1382 11.4799 21.2764C11.6166 21.2764 11.7532 21.2764 11.7532 21.1382C11.8899 21.0001 12.0266 21.0001 12.0266 21.0001C12.1632 21.1382 12.1632 21.2764 12.2999 21.2764L12.1632 21.1382C12.0266 20.5856 11.8899 20.033 11.8899 19.4803V19.0659H9.97656C10.1132 20.8619 10.5232 22.3817 11.3432 23.9014C11.6166 24.7303 12.2999 25.283 12.8466 25.9738L13.9399 24.8685L14.0766 25.1448ZM15.8532 12.158C15.5799 12.4343 15.1699 12.7106 14.8966 12.9869C15.3066 13.2632 15.7166 13.6777 15.9899 13.954V14.0922C16.8099 13.2632 18.0399 12.7106 19.1332 12.4343C19.4066 12.4343 19.6799 12.2961 19.9532 12.4343V10.9146C18.4499 10.9146 17.2199 11.4672 15.8532 12.158ZM14.4866 18.0988C14.4866 18.3751 14.4866 18.6514 14.3499 18.9277C14.6232 18.7896 14.7599 18.9277 15.0332 18.9277C14.8966 18.9277 15.0332 18.6514 14.8966 18.6514C14.8966 18.5132 14.8966 18.3751 15.0332 18.2369C15.0332 17.9606 15.3066 17.9606 15.3066 17.6843C15.3066 17.408 15.5799 17.5461 15.7166 17.408C15.8532 17.408 15.7166 17.2698 15.7166 17.1317C15.8532 16.9935 15.9899 16.9935 16.1266 16.8553L16.3999 16.579C16.6732 16.579 16.6732 16.1646 17.0832 16.1646C16.6732 15.8882 16.2632 15.3356 15.8532 15.0593C15.3066 15.8882 14.7599 16.8553 14.4866 18.0988ZM14.7599 20.3093C14.7599 20.1711 14.6232 20.1711 14.6232 20.033C14.7599 19.7567 14.6232 19.4803 14.8966 19.4803C14.6232 19.4803 14.6232 19.6185 14.3499 19.4803L14.4866 19.6185C14.4866 19.8948 14.6232 20.3093 14.6232 20.7238C14.6232 20.4474 14.6232 20.3093 14.7599 20.3093Z" fill="#676767"/>
<path d="M14.4865 13.4014L13.9399 14.2304C12.9832 15.612 12.4365 17.1317 12.4365 18.7896H14.0765V18.6514C14.2132 17.1317 14.7599 15.612 15.8532 14.5067C15.3065 14.0922 14.8965 13.8159 14.4865 13.4014ZM18.9965 23.7633C19.1332 23.6251 19.2699 23.487 19.4065 23.487C18.8599 23.6251 18.5865 23.2107 18.0399 23.0725C17.7665 22.9343 17.4932 22.7962 17.3565 22.5199C17.0832 22.9343 16.6732 23.3488 16.2632 23.6251C16.5365 23.6251 16.5365 23.9014 16.6732 23.9014C17.4932 24.5922 18.5865 24.8686 19.4065 25.1449L19.1332 25.0067C18.8599 24.7304 18.7232 24.4541 18.5865 24.1778C18.9965 24.0396 18.9965 23.9014 18.9965 23.7633ZM15.3065 19.3422V19.6185C15.3065 19.8949 15.0332 19.6186 15.0332 19.7567V20.033C14.8965 20.3093 15.3065 20.4475 15.3065 20.862C15.4432 21.1383 15.3065 21.2764 15.5799 21.5528C15.5799 21.8291 15.5799 22.3817 15.8532 22.658V22.9343C15.8532 23.2107 15.5799 23.2107 15.5799 23.2107C15.5799 23.2107 15.7165 23.2107 15.7165 23.3488C16.1265 22.7962 16.5365 22.3817 17.2199 21.8291L16.9465 21.5528C16.6732 21.0001 16.2632 20.3093 16.1265 19.6185L15.9899 19.4804C15.9899 19.7567 15.8532 19.7567 15.8532 20.033C15.7165 20.033 15.5799 19.8949 15.5799 19.8949C15.5799 19.8949 15.4432 19.7567 15.5799 19.6185H15.7165V19.3422C15.7165 19.2041 15.5799 19.0659 15.7165 19.0659C15.8532 19.0659 15.9899 19.2041 15.9899 19.3422C16.1265 19.3422 16.2632 19.3422 16.2632 19.2041C16.2632 19.0659 16.3999 18.9278 16.2632 18.9278C16.3999 18.6514 16.2632 18.5133 16.2632 18.237C16.1265 18.0988 15.9899 18.237 15.8532 18.237C15.4432 18.3751 15.9899 18.6514 15.8532 19.0659C15.5799 19.4804 15.4432 19.2041 15.3065 19.3422ZM29.2465 19.3422C29.1099 21.2764 28.4265 22.7962 27.4699 24.3159C27.1965 24.5922 27.1965 24.8685 26.7865 25.0067C27.1965 25.283 27.6065 25.8357 28.0165 26.2501C29.6565 24.3159 30.6132 22.1054 30.6132 19.4804V19.3422H29.2465ZM14.4865 12.7107C16.1265 11.1909 17.9032 10.362 20.0899 10.2238V8.56592C17.9032 8.70408 15.9899 9.39487 14.2132 10.6383C13.9399 10.9146 13.6665 11.1909 13.2565 11.4672C13.8032 11.7436 14.2132 12.158 14.4865 12.7107ZM20.0899 12.987C18.7232 13.1251 17.4932 13.6778 16.3999 14.5067C16.8099 14.783 17.2199 15.3357 17.4932 15.612C17.4932 15.612 17.4932 15.4738 17.6299 15.4738C18.1765 15.1975 18.7232 14.783 19.2699 14.6449C19.5432 14.6449 19.8165 14.5067 20.0899 14.5067V12.987ZM20.0899 15.0593C19.1332 15.1975 18.4499 15.612 17.7665 16.3028H17.9032C18.0399 16.4409 18.1765 16.4409 18.3132 16.5791C18.3132 16.7172 18.1765 16.7172 18.1765 16.8554H18.3132C18.4043 16.8554 18.4499 16.8093 18.4499 16.7172C18.5865 16.5791 18.5865 16.8554 18.7232 16.8554H18.9965C19.1332 16.7172 19.2699 16.8554 19.2699 16.7172C19.5432 16.4409 19.4065 16.3028 19.5432 16.1646C19.6799 16.1646 19.5432 16.3028 19.5432 16.4409C19.8165 16.5791 19.8165 16.3028 20.0899 16.4409V15.0593ZM20.2265 17.5462C19.9532 17.8225 19.8165 17.8225 19.5432 17.9607C19.4065 18.0988 19.5432 18.237 19.2699 18.237C19.2699 18.3751 18.9965 18.5133 18.9965 18.5133C18.8599 18.7896 18.9965 18.9278 18.8599 19.2041C18.5865 19.4804 18.5865 18.9278 18.4499 18.9278H18.0399C17.9032 19.0659 17.7665 19.2041 17.9032 19.2041C17.9032 19.3422 17.6299 19.2041 17.6299 19.4804C17.8121 19.4804 17.9943 19.4343 18.1765 19.3422H18.4499C18.4499 19.3422 18.5865 19.3422 18.5865 19.4804C18.7232 19.4804 18.7232 19.2041 18.7232 19.2041C18.7232 19.0659 18.8599 19.0659 18.9965 19.0659C19.1332 19.0659 18.9965 19.2041 18.9965 19.2041C19.2699 19.3422 18.9965 19.4804 18.8599 19.6185C18.8599 19.7567 18.8599 19.8949 18.5865 19.8949V19.7567C18.5865 19.8949 18.5865 20.033 18.7232 20.033C18.8599 19.8949 18.8599 19.7567 18.9965 19.7567C19.1332 19.6186 18.9965 19.4804 19.1332 19.3422C19.4065 19.3422 19.6799 19.2041 19.9532 19.4804V19.7567C19.9532 19.8949 19.8165 20.033 19.6799 20.033V20.3093C19.5432 20.5857 19.2699 20.5857 18.9965 20.5857C19.2699 20.862 19.8165 20.862 20.2265 20.862C20.4999 20.862 20.3632 20.5857 20.4999 20.4475C20.6365 20.1712 20.9099 20.3093 21.1832 20.1712C21.3199 19.8949 21.4565 19.8949 21.4565 19.6185C21.1832 19.4804 21.1832 19.3422 21.1832 19.2041C21.0465 19.0659 21.0465 18.9278 20.9099 18.9278V18.7896C20.9099 18.6514 21.0465 18.6514 21.0465 18.5133C20.9099 18.3751 20.9099 18.237 20.9099 18.237C20.6365 18.237 20.6365 17.9607 20.4999 17.9607C20.4999 17.8225 20.2265 17.8225 20.2265 17.6843C19.9532 17.8225 19.9532 17.408 19.6799 17.408V17.1317C19.8165 16.9935 19.9532 17.1317 19.9532 17.1317H19.8165C19.6799 16.9935 19.5432 17.1317 19.4065 17.1317C20.2265 17.408 20.0899 17.408 20.2265 17.5462Z" fill="#676767"/>
<path d="M11.7533 18.7896V18.5133C11.89 16.7173 12.4367 15.1975 13.3933 13.8159C13.6667 13.5396 13.8033 13.1252 14.2133 12.987L13.12 11.8817C11.6167 13.6778 10.5233 15.7502 10.3867 17.9607C10.3867 18.237 10.3867 18.6515 10.25 18.9278C10.66 18.6515 11.3433 18.6515 11.7533 18.7896ZM26.65 25.4212C26.5133 25.6975 26.1033 25.9738 25.83 26.2502C25.5567 26.5265 25.01 26.6646 24.7367 27.2173C24.4633 27.4936 24.4633 27.6317 24.19 27.7699C24.0533 28.0462 23.9167 28.0462 23.6433 28.1844C23.2333 28.5988 22.8233 27.908 22.55 27.908L21.73 28.0462C21.4567 28.0462 21.1833 28.1844 20.91 28.0462V29.7041H21.0467C23.6433 29.5659 25.9667 28.5988 27.88 26.8028L26.65 25.6975V25.4212ZM20.7733 10.0857C20.8644 9.99358 20.9556 9.99358 21.0467 10.0857V10.362H21.1833C22.4133 10.5002 23.6433 10.7765 24.6 11.4673C24.8733 11.3291 25.1467 11.1909 25.2833 11.4673C25.5567 11.3291 25.5567 11.7436 25.83 11.7436C25.9667 11.7436 26.24 12.158 26.24 12.4344C26.24 12.5725 26.5133 12.7107 26.5133 12.7107C26.7867 12.4344 27.06 12.0199 27.3333 11.7436L27.6067 11.6054C25.9667 10.0857 23.9167 9.11858 21.8667 8.84226C21.5933 8.84226 21.0467 8.84226 20.7733 8.7041V10.0857Z" fill="#676767"/>
<path d="M20.7734 12.4342C21.0468 12.2961 21.1834 12.4342 21.4568 12.4342C22.5501 12.7106 23.5068 12.9869 24.4634 13.6777C24.3268 13.5395 24.1901 13.4013 24.1901 13.2632C24.1901 12.9869 23.9168 12.9869 23.9168 12.8487H24.0534C24.2357 13.0329 24.3723 13.2171 24.4634 13.4013C24.6001 13.4013 24.7368 13.4013 24.7368 13.5395C24.7368 13.6777 24.7368 13.8158 25.0101 13.954C25.0101 14.2303 25.4201 14.5066 25.4201 14.7829C25.4201 14.9211 25.5568 14.7829 25.5568 14.7829L25.8301 15.1974V15.4737C25.9668 15.4737 26.1034 15.3356 26.1034 15.3356C26.3768 15.4737 26.1034 15.6119 26.1034 15.75H26.3768C26.3768 15.8882 26.2401 16.0263 26.2401 16.0263C26.2401 16.1645 26.3768 16.1645 26.5134 16.1645C26.6501 16.1645 26.6501 16.3027 26.6501 16.4408C26.9234 16.7171 26.5134 16.9934 26.6501 17.2698C26.7868 17.5461 26.6501 17.5461 26.5134 17.8224C26.5134 18.0987 26.2401 18.0987 26.2401 18.375H25.9668C25.8301 18.5132 26.1034 18.6513 25.9668 18.7895H26.5134C26.3768 18.5132 26.5134 18.2369 26.6501 17.9606C26.7868 17.6842 26.7868 17.5461 26.9234 17.4079C26.9234 17.4079 27.0601 17.2698 27.0601 17.4079C27.0601 17.6842 27.0601 17.8224 26.9234 17.9606C27.1968 18.2369 27.0601 18.5132 27.1968 18.7895H28.8368V18.6513C28.7001 17.6842 28.5634 16.579 28.1534 15.75C28.0168 15.75 27.8801 15.8882 27.8801 15.75C27.8801 15.75 27.7434 15.75 27.8801 15.6119C27.6068 15.3356 27.6068 15.1974 27.3334 14.9211C27.0601 14.9211 26.9234 14.6448 26.6501 14.6448C26.3768 14.6448 26.5134 14.2303 26.2401 14.3684C26.1034 14.3684 25.9668 14.0921 25.9668 14.0921C25.9668 13.8158 25.9668 13.5395 25.6934 13.2632C25.4201 13.125 25.4201 13.5395 25.2834 13.4013C25.1468 13.4013 25.2834 13.125 25.1468 13.125C25.1468 12.9869 25.0101 12.9869 25.0101 12.8487C25.2834 12.5724 24.7368 12.5724 24.7368 12.1579C24.7368 11.8816 24.4634 11.8816 24.3268 11.6053C23.5068 11.329 22.6868 10.9145 21.7301 10.7763C21.4568 10.7763 21.3201 10.7763 21.0468 10.6382V10.7763C20.7734 11.4671 20.7734 11.8816 20.7734 12.4342Z" fill="#676767"/>
<path d="M26.6504 12.9866C26.7871 12.9866 26.7871 13.2629 26.9237 13.2629C27.3337 13.5392 27.4704 13.9537 27.7437 14.0919C28.0171 14.5063 28.4271 14.9208 28.4271 15.3353C28.8371 16.4406 29.2471 17.4077 29.2471 18.7892H30.8871C30.7504 18.6511 30.8871 18.5129 30.7504 18.2366C30.4771 15.7498 29.5204 13.6774 27.8804 11.8813C27.6071 12.2958 27.1971 12.7103 26.6504 12.9866Z" fill="#676767"/>
<path d="M20.9102 9.80903C20.9102 9.67087 21.1835 9.80903 21.1835 9.80903L22.0035 9.53271C22.2768 9.53271 22.6868 9.53271 22.8235 9.80903C22.5502 10.0853 22.4135 10.0853 22.1402 10.0853C21.7302 10.0853 21.3202 10.2235 20.9102 9.80903ZM25.5568 10.7761C25.6935 10.7761 25.8302 10.9143 25.8302 11.0525C25.8302 11.1906 25.9668 11.3288 25.8302 11.3288C25.5568 11.4669 25.5568 11.0525 25.2835 11.0525V10.9143C25.4202 10.638 25.4202 10.9143 25.5568 10.7761Z" fill="white"/>
</g>
<defs>
<clipPath id="clip0_1253_3025">
<rect width="41" height="84" fill="white"/>
</clipPath>
</defs>
</svg>
