<svg width="118" height="91" viewBox="0 0 118 91" fill="none" xmlns="http://www.w3.org/2000/svg">
<g id="Group">
<g id="Group_2">
<path id="Vector" d="M52.1538 87.0223C40.326 92.1516 11.5412 92.1281 0.533203 86.9052C1.61058 83.3217 2.50059 79.5509 3.92929 76.0377C4.7022 74.1406 6.1309 71.9156 7.84065 71.1192C16.7408 66.9268 25.5472 61.1418 35.8994 67.2781C36.766 67.7934 37.7965 68.0745 38.7802 68.2618C45.5724 69.5032 49.109 73.9766 50.7251 80.3004C51.334 82.5488 51.7088 84.8441 52.1538 87.0223Z" fill="black"/>
<path id="Vector_2" d="M73.3032 45.6368C74.5679 48.0726 75.9498 50.7193 77.3316 53.3893C77.4722 53.6703 77.8937 53.6469 78.0109 53.3424C78.3856 52.3587 78.8774 50.5319 79.2053 49.7356C79.3459 49.3842 79.4864 49.3608 79.5098 48.9861C79.5098 48.5411 78.7369 47.9087 78.1748 47.2061C77.964 46.9484 78.2217 46.5503 78.5496 46.6205C79.9548 46.9718 81.243 46.7376 82.4843 46.48C82.8122 46.4097 83.0699 46.8079 82.8591 47.0655C82.3672 47.6979 81.7583 48.1195 81.4772 48.8221C81.4304 48.9392 81.4538 49.0563 81.5241 49.15C81.8754 49.7356 82.4375 52.1245 82.8591 53.319C82.9762 53.6235 83.3743 53.6469 83.5383 53.3659C84.9436 50.6724 86.3723 47.979 87.7775 45.3089C87.8478 45.1684 88.0352 45.0747 88.1757 45.1216C101.971 47.979 104.219 54.4432 105.18 64.7252C105.203 64.936 105.039 65.1234 104.805 65.1234H55.948C55.7372 65.1234 55.5732 64.936 55.5732 64.7252C56.2759 53.7874 61.2178 46.6674 72.9284 45.4495C73.0924 45.426 73.2329 45.4963 73.3032 45.6368Z" fill="black"/>
<path id="Vector_3" d="M25.2192 32.9904C19.8557 32.9904 14.5625 33.0372 9.29273 32.9904C2.96898 32.9435 3.85899 33.857 3.81215 27.4395C3.7653 22.6381 3.74188 17.8368 3.88241 13.0354C3.90583 12.2157 3.3203 10.5762 6.88034 10.5762C14.8202 10.5762 22.7834 10.5762 31.0511 10.5762C31.0511 14.5344 31.0511 18.1881 31.0511 21.8418C31.0511 27.6035 31.0511 27.6035 36.5786 28.1656C37.7262 32.5454 37.3983 33.0841 33.0888 32.9904C31.098 32.9435 28.9198 33.0606 28.1703 35.3325C27.7721 36.5504 27.4677 37.6044 26.7885 38.752C26.3434 38.3538 26.3434 34.8875 25.2192 32.9904Z" fill="black"/>
<path id="Vector_4" d="M63.42 26.2449C63.3498 27.252 63.2795 28.142 63.2093 29.032C63.1624 29.8283 63.1156 30.6247 63.0219 32.4749C61.3121 30.6012 57.4242 26.0341 55.7847 26.0575C49.133 26.1512 42.4814 26.0107 35.8532 26.1278C33.6516 26.1746 32.7615 25.5891 32.8084 23.2235C32.9489 16.7827 32.9489 10.3418 32.8084 3.90095C32.7615 1.5354 33.6984 0.926441 35.8766 0.949862C46.2054 1.02013 56.5342 1.04355 66.863 0.949862C69.3222 0.926441 70.0014 1.83987 69.9546 4.182C69.8141 10.3184 69.7672 16.4548 69.978 22.5912C70.0717 25.472 69.1583 26.5259 66.3477 26.1278C65.4343 26.0107 64.5209 26.198 63.42 26.2449ZM67.8467 3.22173C56.6513 3.22173 45.7838 3.22173 34.9397 3.22173C34.9397 10.3652 34.9397 17.2277 34.9397 24.0199C46.0414 24.0199 56.9089 24.0199 67.8467 24.0199C67.8467 16.9935 67.8467 10.2013 67.8467 3.22173Z" fill="black"/>
<path id="Vector_5" d="M46.041 68.2861C51.5684 72.5488 53.1611 78.2402 54.4024 84.1892C68.83 84.1892 83.0233 84.1892 97.24 84.1658C97.8958 84.1658 98.6687 83.8847 99.184 83.4866C105.18 78.5915 111.129 73.6262 117.57 68.3096C93.4692 68.2861 70.0713 68.2861 46.041 68.2861ZM78.1048 79.2005C77.6598 79.5518 76.9806 79.786 76.4185 79.786C72.0621 79.8328 67.7057 79.8094 63.1152 79.8094C73.9358 71.3543 74.4511 71.0733 74.4511 71.0733C74.4511 71.0733 82.1567 70.7688 87.7075 71.2606C84.2178 74.1649 81.1964 76.7178 78.1048 79.2005Z" fill="black"/>
</g>
<path id="Vector_6" d="M88.3861 30.1562C88.1519 29.7346 87.8942 29.7112 87.7068 29.7346C87.7068 29.4301 87.7068 29.1491 87.7068 28.9149C87.6834 23.4577 84.2639 20.694 79.8841 20.7408C75.5043 20.7877 71.8272 23.8793 71.8506 29.3364C71.8506 29.4535 71.8506 29.5941 71.8506 29.7346C71.6164 29.7112 71.2651 29.6643 71.0777 30.1328C70.9138 30.5778 70.9372 31.7957 70.9372 32.4749C70.9372 33.1541 71.3588 33.7865 71.4993 34.2315C71.6164 34.6062 71.8506 34.8404 72.0614 34.9341C72.2488 36.761 72.5767 38.4473 73.2091 39.2671C74.6612 41.211 77.7996 44.5135 80.0949 44.49C82.3902 44.4666 85.1305 41.1174 86.5592 39.15C87.1447 38.3302 87.4492 36.6439 87.5897 34.817C87.7303 34.6999 87.8708 34.4891 87.9645 34.2315C88.1284 33.7865 88.5266 33.1541 88.5266 32.4749C88.5266 31.7957 88.55 30.6012 88.3861 30.1562Z" fill="black"/>
<g id="Group_3">
<path id="Vector_7" d="M30.9577 62.1032C31.8009 61.1898 32.5738 60.2061 33.1359 59.4332C33.7214 58.6134 34.0259 56.9271 34.1664 55.1002C34.3069 54.9831 34.4475 54.7723 34.5411 54.5147C34.7051 54.0697 35.1033 53.4373 35.1033 52.7581C35.1033 52.0789 35.1267 50.861 34.9627 50.416C34.7285 49.9944 34.4709 49.9709 34.2835 49.9944C34.2835 49.6899 34.2835 49.4088 34.2835 49.1746C34.2601 43.7175 30.8406 40.9537 26.4608 41.0006C22.081 41.0474 18.4039 44.139 18.4273 49.6196C18.4273 49.7367 18.4273 49.8773 18.4273 50.0178C18.1931 49.9944 17.8418 49.9475 17.6544 50.416C17.4904 50.861 17.5139 52.0789 17.5139 52.7581C17.5139 53.4373 17.9354 54.0697 18.076 54.5147C18.1931 54.8894 18.4273 55.1236 18.6381 55.2173C18.8254 57.0442 19.1533 58.7305 19.7857 59.5503C20.3478 60.2763 21.1207 61.2132 22.0107 62.0798C24.915 61.424 27.8661 61.2834 30.9577 62.1032Z" fill="black"/>
</g>
</g>
</svg>
