<svg width="117" height="117" viewBox="0 0 117 117" fill="none" xmlns="http://www.w3.org/2000/svg">
<path id="Vector" fill-rule="evenodd" clip-rule="evenodd" d="M99.8219 17.8238C88.9567 6.95854 74.2202 0.854492 58.8544 0.854492C43.4885 0.854492 28.7521 6.95854 17.8868 17.8238C7.02153 28.6891 0.91748 43.4256 0.91748 58.7914C0.91748 74.1572 7.02153 88.8937 17.8868 99.7589C28.7521 110.624 43.4885 116.728 58.8544 116.728C65.4375 116.728 68.5081 113.39 68.5081 109.486C68.5081 106.172 67.2806 103.515 66.064 100.881C64.8691 98.2941 63.6849 95.7303 63.6849 92.5903C63.6849 86.1231 69.0658 85.3482 73.3386 85.3482H85.4112C102.358 85.3482 116.791 74.7675 116.791 58.7914C116.791 43.4256 110.687 28.6891 99.8219 17.8238ZM49.4693 100.123C48.1112 101.481 46.2691 102.244 44.3484 102.244C42.4277 102.244 40.5857 101.481 39.2275 100.123C37.8693 98.7647 37.1063 96.9227 37.1063 95.0019C37.1063 93.0812 37.8693 91.2392 39.2275 89.8811C40.5857 88.5228 42.4277 87.7598 44.3484 87.7598C46.2691 87.7598 48.1112 88.5228 49.4693 89.8811C50.8276 91.2392 51.5905 93.0812 51.5905 95.0019C51.5905 96.9227 50.8276 98.7647 49.4693 100.123ZM33.9246 62.8518C31.8873 64.889 29.1242 66.0335 26.2431 66.0335C23.3621 66.0335 20.599 64.889 18.5617 62.8518C16.5245 60.8145 15.38 58.0514 15.38 55.1703C15.38 52.2893 16.5245 49.5262 18.5617 47.4889C20.599 45.4517 23.3621 44.3072 26.2431 44.3072C29.1242 44.3072 31.8873 45.4517 33.9246 47.4889C35.9618 49.5262 37.1063 52.2893 37.1063 55.1703C37.1063 58.0514 35.9618 60.8145 33.9246 62.8518ZM81.095 36.2381C79.7771 36.7841 78.3645 37.0651 76.9379 37.0651C74.0569 37.0651 71.2938 35.9206 69.2565 33.8834C67.2193 31.846 66.0748 29.0829 66.0748 26.2019C66.0748 23.3209 67.2193 20.5577 69.2565 18.5204C71.2938 16.4832 74.0569 15.3387 76.9379 15.3387C78.3645 15.3387 79.7771 15.6197 81.095 16.1656C82.4131 16.7116 83.6106 17.5117 84.6194 18.5204C85.6281 19.5292 86.4282 20.7267 86.9742 22.0447C87.5201 23.3627 87.8011 24.7753 87.8011 26.2019C87.8011 27.6285 87.5201 29.041 86.9742 30.3591C86.4282 31.677 85.6281 32.8745 84.6194 33.8834C83.6106 34.8921 82.4131 35.6922 81.095 36.2381ZM36.5703 36.2381C37.8882 36.7841 39.3009 37.0651 40.7275 37.0651C43.6085 37.0651 46.3716 35.9206 48.4088 33.8834C50.446 31.846 51.5907 29.0829 51.5907 26.2019C51.5907 23.3209 50.446 20.5577 48.4088 18.5204C46.3716 16.4832 43.6085 15.3387 40.7275 15.3387C39.3009 15.3387 37.8882 15.6197 36.5703 16.1656C35.2523 16.7116 34.0547 17.5117 33.046 18.5204C32.0373 19.5292 31.2371 20.7267 30.6911 22.0447C30.1452 23.3627 29.8643 24.7753 29.8643 26.2019C29.8643 27.6285 30.1452 29.041 30.6911 30.3591C31.2371 31.677 32.0373 32.8745 33.046 33.8834C34.0547 34.8921 35.2523 35.6922 36.5703 36.2381ZM83.7408 62.8518C85.778 64.889 88.5411 66.0335 91.4223 66.0335C94.3033 66.0335 97.0664 64.889 99.1036 62.8518C101.141 60.8145 102.285 58.0514 102.285 55.1703C102.285 52.2893 101.141 49.5262 99.1036 47.4889C97.0664 45.4517 94.3033 44.3072 91.4223 44.3072C88.5411 44.3072 85.778 45.4517 83.7408 47.4889C81.7036 49.5262 80.5591 52.2893 80.5591 55.1703C80.5591 58.0514 81.7036 60.8145 83.7408 62.8518Z" fill="black"/>
</svg>
