<svg width="102" height="116" viewBox="0 0 102 116" fill="none" xmlns="http://www.w3.org/2000/svg">
<path id="Vector" fill-rule="evenodd" clip-rule="evenodd" d="M52.6834 89.0722V101.172C54.3782 101.573 55.867 102.586 56.8668 104.018C57.8666 105.45 58.3077 107.2 58.1063 108.937C57.9048 110.674 57.0749 112.276 55.7743 113.438C54.4736 114.601 52.7928 115.243 51.0513 115.243C49.3099 115.243 47.6291 114.601 46.3284 113.438C45.0277 112.276 44.1978 110.674 43.9964 108.937C43.795 107.2 44.2361 105.45 45.2359 104.018C46.2356 102.586 47.7244 101.573 49.4193 101.172V89.0722H52.6834ZM64.1494 62.1426C63.8433 61.8352 63.6713 61.4184 63.6713 60.9837C63.6713 60.5491 63.8433 60.1323 64.1494 59.8249C64.4555 59.5176 64.8706 59.3449 65.3035 59.3449C65.7364 59.3449 66.1516 59.5176 66.4577 59.8249L69.112 62.4913L71.7677 59.8249C72.0756 59.5265 72.4879 59.3615 72.9158 59.3653C73.3437 59.3692 73.753 59.5416 74.0555 59.8455C74.358 60.1494 74.5295 60.5605 74.5331 60.9901C74.5367 61.4197 74.3721 61.8336 74.0747 62.1426L71.4191 64.8076L74.0747 67.4727C74.3807 67.7798 74.5525 68.1964 74.5525 68.6308C74.5525 69.0652 74.3807 69.4818 74.0747 69.789C73.7688 70.0962 73.3539 70.2687 72.9212 70.2687C72.4886 70.2687 72.0736 70.0962 71.7677 69.789L69.112 67.124L66.4577 69.7903C66.3061 69.9425 66.1262 70.0632 65.9282 70.1456C65.7301 70.2279 65.5179 70.2703 65.3035 70.2703C65.0892 70.2703 64.8769 70.2279 64.6789 70.1456C64.4809 70.0632 64.3009 69.9425 64.1494 69.7903C63.9978 69.6381 63.8776 69.4575 63.7955 69.2586C63.7135 69.0598 63.6713 68.8467 63.6713 68.6315C63.6713 68.4163 63.7135 68.2032 63.7955 68.0043C63.8776 67.8055 63.9978 67.6248 64.1494 67.4727L66.805 64.8063L64.1494 62.1426ZM81.8641 23.5172C81.5578 23.2094 81.3859 22.792 81.3861 22.3568C81.3864 21.9217 81.5588 21.5045 81.8654 21.197C82.172 20.8894 82.5878 20.7168 83.0211 20.7171C83.4545 20.7173 83.8701 20.8904 84.1764 21.1983L86.832 23.8633L89.4863 21.1983C89.7941 20.8997 90.2063 20.7344 90.6342 20.738C91.0621 20.7416 91.4715 20.9138 91.7741 21.2176C92.0768 21.5213 92.2486 21.9322 92.2524 22.3619C92.2563 22.7915 92.0919 23.2055 91.7947 23.5146L89.139 26.1796L91.7947 28.8447C92.0919 29.1538 92.2563 29.5678 92.2524 29.9974C92.2486 30.427 92.0768 30.838 91.7741 31.1417C91.4715 31.4454 91.0621 31.6177 90.6342 31.6213C90.2063 31.6249 89.7941 31.4596 89.4863 31.161L86.832 28.4999L84.1764 31.161C83.8691 31.4602 83.4572 31.6262 83.0293 31.6234C82.6013 31.6205 82.1916 31.449 81.8884 31.1457C81.5852 30.8425 81.4127 30.4318 81.4082 30.0022C81.4036 29.5725 81.5674 29.1582 81.8641 28.8486L84.5236 26.1796L81.8641 23.5172ZM17.7057 64.5481C17.3336 64.1744 16.844 63.9418 16.3203 63.8899C15.7966 63.8381 15.2712 63.9702 14.8337 64.2637C14.3961 64.5572 14.0734 64.994 13.9207 65.4996C13.7679 66.0052 13.7945 66.5484 13.9959 67.0365C14.1973 67.5247 14.5611 67.9276 15.0253 68.1766C15.4894 68.4256 16.0252 68.5053 16.5413 68.4021C17.0574 68.2989 17.5219 68.0192 17.8556 67.6107C18.1894 67.2022 18.3717 66.6901 18.3715 66.1618C18.3719 65.862 18.3133 65.5651 18.199 65.2882C18.0848 65.0112 17.9171 64.7597 17.7057 64.5481ZM16.0984 60.6023C17.3798 60.6023 18.6214 61.0483 19.6119 61.8644C20.6025 62.6805 21.2805 63.8161 21.5305 65.0779C21.7806 66.3396 21.5872 67.6494 20.9833 68.784C20.3794 69.9186 19.4023 70.8079 18.2186 71.3004C17.0348 71.7928 15.7177 71.8579 14.4915 71.4846C13.2653 71.1113 12.206 70.3227 11.4939 69.2531C10.7819 68.1836 10.4613 66.8992 10.5867 65.6189C10.7121 64.3386 11.2757 63.1416 12.1816 62.2317C12.6951 61.7141 13.3056 61.3036 13.9778 61.024C14.6501 60.7443 15.3708 60.601 16.0984 60.6023ZM25.2887 59.2521L44.155 40.315C44.9299 39.5466 45.9761 39.1172 47.0652 39.1206C48.1543 39.124 49.1978 39.5599 49.9679 40.3331C50.738 41.1063 51.1721 42.154 51.1755 43.2475C51.1789 44.341 50.7512 45.3914 49.9859 46.1694C48.6466 47.5694 47.9072 49.4409 47.9267 51.382C47.9462 53.3232 48.7228 55.1793 50.09 56.552C51.4572 57.9247 53.3059 58.7045 55.2392 58.724C57.1726 58.7436 59.0365 58.0013 60.4309 56.6565L76.6729 40.3504V44.3014C76.6729 44.736 76.8449 45.1528 77.1509 45.4601C77.457 45.7673 77.8721 45.94 78.305 45.94C78.7378 45.94 79.1529 45.7673 79.459 45.4601C79.765 45.1528 79.937 44.736 79.937 44.3014V36.3954C79.937 35.9608 79.765 35.544 79.459 35.2367C79.1529 34.9294 78.7378 34.7568 78.305 34.7568H70.4307C69.9979 34.7568 69.5828 34.9294 69.2767 35.2367C68.9706 35.544 68.7987 35.9608 68.7987 36.3954C68.7987 36.83 68.9706 37.2468 69.2767 37.5541C69.5828 37.8614 69.9979 38.034 70.4307 38.034H74.3672L58.1252 54.3415C57.3503 55.1099 56.3041 55.5392 55.2151 55.5358C54.126 55.5324 53.0825 55.0965 52.3124 54.3233C51.5423 53.5501 51.1081 52.5024 51.1047 51.4089C51.1014 50.3155 51.529 49.265 52.2943 48.487C53.6337 47.087 54.373 45.2156 54.3535 43.2744C54.3341 41.3332 53.5574 39.4771 52.1902 38.1044C50.8231 36.7317 48.9744 35.9519 47.041 35.9324C45.1076 35.9129 43.2437 36.6552 41.8493 37.9999L22.9804 56.9344C22.8288 57.0866 22.7086 57.2673 22.6266 57.4661C22.5445 57.6649 22.5023 57.878 22.5023 58.0932C22.5023 58.3085 22.5445 58.5216 22.6266 58.7204C22.7086 58.9192 22.8288 59.0999 22.9804 59.2521C23.132 59.4042 23.3119 59.525 23.5099 59.6073C23.708 59.6897 23.9202 59.7321 24.1346 59.7321C24.3489 59.7321 24.5612 59.6897 24.7592 59.6073C24.9572 59.525 25.1372 59.4042 25.2887 59.2521ZM99.0187 8.59013H3.33596L3.26154 85.8015H98.896L99.0187 8.59669V8.59013ZM25.5251 5.31291V0.551758H0.509277V5.31291H25.5251ZM28.7891 0.551758V5.31291H101.593V0.551758H28.7891ZM31.8991 22.1369C32.2052 21.8293 32.6205 21.6565 33.0535 21.6564C33.4865 21.6563 33.9018 21.8289 34.2081 22.1362C34.5144 22.4435 34.6865 22.8605 34.6867 23.2952C34.6868 23.73 34.5149 24.147 34.2088 24.4545L31.5544 27.1196L34.2088 29.7859C34.3602 29.938 34.4804 30.1186 34.5624 30.3173C34.6444 30.516 34.6866 30.729 34.6866 30.9441C34.6866 31.1592 34.6444 31.3721 34.5624 31.5709C34.4804 31.7696 34.3602 31.9501 34.2088 32.1022C34.0573 32.2543 33.8774 32.375 33.6795 32.4573C33.4816 32.5396 33.2695 32.582 33.0552 32.582C32.841 32.582 32.6289 32.5396 32.431 32.4573C32.233 32.375 32.0532 32.2543 31.9017 32.1022L29.2474 29.4372L26.5931 32.1022C26.2842 32.3946 25.874 32.5547 25.4495 32.5484C25.025 32.5421 24.6197 32.37 24.3195 32.0686C24.0193 31.7672 23.8479 31.3603 23.8417 30.9341C23.8354 30.5079 23.9948 30.096 24.286 29.7859L26.9417 27.1196L24.286 24.4545C23.9799 24.1472 23.8079 23.7303 23.8079 23.2957C23.8079 22.861 23.9799 22.4442 24.286 22.1369C24.5921 21.8295 25.0073 21.6569 25.4402 21.6569C25.8731 21.6569 26.2883 21.8295 26.5944 22.1369L29.2474 24.8032L31.8991 22.1369Z" fill="black"/>
</svg>
