<svg width="25" height="44" viewBox="0 0 25 44" fill="none" xmlns="http://www.w3.org/2000/svg">
<g id="Group">
<path id="Vector" d="M22.1279 39.5576H2.12793C1.02293 39.5576 0.12793 40.4454 0.12793 41.5414C0.12793 42.6375 1.02293 43.5253 2.12793 43.5253H22.1279C23.2329 43.5253 24.1279 42.6375 24.1279 41.5414C24.1279 40.4454 23.2329 39.5576 22.1279 39.5576Z" fill="white"/>
<path id="Vector_2" d="M3.62793 24.5526H20.6279C21.7329 24.5526 22.6279 23.6648 22.6279 22.5688C22.6279 21.4727 21.7329 20.585 20.6279 20.585H3.62793C2.52293 20.585 1.62793 21.4727 1.62793 22.5688C1.62793 23.6648 2.52293 24.5526 3.62793 24.5526Z" fill="white"/>
<path id="Vector_3" d="M15.1279 26.8472C15.1279 26.3662 15.0779 25.8653 15.1279 25.3594H9.12793C9.17793 25.8653 9.12793 26.3662 9.12793 26.8472C9.12793 31.8068 6.12793 38.7502 6.12793 38.7502H18.1279C18.1279 38.7502 15.1279 31.8068 15.1279 26.8472Z" fill="white"/>
<path id="Vector_4" d="M8.37793 17.7949C7.96293 17.7949 7.62793 18.2413 7.62793 18.7868C7.62793 19.3324 7.96293 19.7787 8.37793 19.7787H15.8779C16.2929 19.7787 16.6279 19.3324 16.6279 18.7868C16.6279 18.2413 16.2929 17.7949 15.8779 17.7949H8.37793Z" fill="white"/>
<path id="Vector_5" d="M7.12793 16.9887H17.1279C17.6779 16.9887 18.1279 16.5423 18.1279 15.9968C18.1279 15.4512 17.6779 15.0049 17.1279 15.0049H7.12793C6.57793 15.0049 6.12793 15.4512 6.12793 15.9968C6.12793 16.5423 6.57793 16.9887 7.12793 16.9887Z" fill="white"/>
<path id="Vector_6" d="M10.6279 7.9353H13.6279L12.6279 4.46361L16.1279 5.45552V2.47978L12.6279 3.47169L13.6279 0H10.6279L11.6279 3.47169L8.12793 2.47978V5.45552L11.6279 4.46361L10.6279 7.9353Z" fill="white"/>
<path id="Vector_7" d="M7.62793 14.1967H16.6279C17.0629 12.8973 17.6729 11.8409 17.9129 11.2508C18.0479 10.9135 18.1279 10.725 18.1279 10.725C18.1279 9.62897 15.4429 8.74121 12.1279 8.74121C8.81293 8.74121 6.12793 9.62897 6.12793 10.725C6.12793 10.725 6.20793 10.9135 6.34293 11.2508C6.58293 11.8409 7.19293 12.8973 7.62793 14.1967Z" fill="white"/>
</g>
</svg>
