<svg width="32" height="47" viewBox="0 0 32 47" fill="none" xmlns="http://www.w3.org/2000/svg">
<g id="Group">
<path id="Vector" d="M1.76837 45.4717H27.169C28.3756 45.4717 28.3502 46.9997 27.169 46.9997H1.76837C0.561825 46.9997 0.587135 45.4717 1.76837 45.4717Z" fill="white"/>
<path id="Vector_2" d="M6.63182 32.5967C11.8545 32.5967 17.0815 32.5967 22.3042 32.5967C23.8061 32.5967 23.7723 35.0011 22.3042 35.0011C17.0815 35.0011 11.8545 35.0011 6.63182 35.0011C5.12997 35.0011 5.16372 32.5967 6.63182 32.5967Z" fill="white"/>
<path id="Vector_3" d="M7.17244 27.5809C9.14678 23.6305 4.38811 19.0734 6.5312 13.9635C6.81385 13.2894 7.80946 12.2557 7.43822 11.595C6.9826 10.7771 6.04605 10.8895 6.96151 9.97713C9.47584 7.46487 11.2055 5.78853 14.6226 5.10991C15.0529 5.02452 15.0614 5.03351 15.15 4.5751C15.3609 3.492 16.0485 0.539304 17.1834 0C18.449 7.11882 18.6852 1.53702 21.7522 0.633683C21.5244 2.62461 18.7063 5.79303 24.6251 5.22676C24.7812 5.21328 24.8698 5.1189 24.8149 5.3481C24.4268 6.79524 22.8406 6.57053 23.2709 7.48734C24.5492 10.1884 31.9108 15.9904 31.6112 17.7701C31.5269 18.2689 31.1261 20.543 30.7422 20.898C30.4258 21.1902 29.8816 20.9924 29.4766 21.2171C29.0547 21.4508 28.8775 21.9272 28.7299 22.0036C27.9916 22.3946 27.034 20.9655 26.3084 19.8779C25.2242 18.2599 25.5659 18.5745 24.0218 18.7633C21.8366 19.033 19.7103 17.5274 18.9004 17.797C18.5249 17.9229 18.411 18.2914 18.6388 19.0689C19.5796 22.2688 29.3753 29.9494 22.5622 32.1201L7.88118 32.0976C2.283 30.5741 6.13465 29.6528 7.17244 27.5809Z" fill="white"/>
<path id="Vector_4" d="M26.7217 44.9243H2.21539V40.12C2.21539 35.9269 7.50139 37.9179 7.98654 35.5H20.9505C21.4357 37.9179 26.7217 35.9269 26.7217 40.12V44.9243Z" fill="white"/>
</g>
</svg>
