<svg width="51" height="51" viewBox="0 0 51 51" fill="none" xmlns="http://www.w3.org/2000/svg">
<g id="Layer_1" clip-path="url(#clip0_1043_1243)">
<path id="Vector" d="M48.9249 23.3149C48.8698 23.0945 48.8123 22.8741 48.7572 22.6561C48.1747 20.3661 47.3532 18.1421 46.3059 16.0201C45.2026 13.9097 43.8127 11.9585 42.1747 10.2207C40.0793 7.87677 37.6312 5.86632 34.9165 4.26014C30.6224 1.78823 25.3723 0.0273206 20.3881 -0.00585938H20.2683C16.003 -0.00585938 12.4214 0.81337 9.52353 2.45183C6.07773 4.40629 4.35243 7.23686 4.34764 10.9435C4.33943 12.2293 4.59542 13.5032 5.10006 14.6881C5.61838 15.8136 6.26131 16.8787 7.01706 17.8639C5.46189 18.5465 3.98341 19.8192 2.61036 21.6962C0.96654 23.9193 0.146228 26.1913 0.149423 28.5123C0.149423 34.0897 2.36754 38.7128 6.80379 42.3816C11.1394 45.9713 16.491 47.7646 22.8586 47.7615C26.5329 47.7615 29.6879 46.9628 32.3238 45.3654C35.3159 43.5515 36.8111 41.112 36.8095 38.0468C36.8357 36.5995 36.4442 35.1748 35.6809 33.9396C34.9189 32.738 33.9269 32.1408 32.688 32.1408C31.7822 32.1408 31.0849 32.3778 30.6009 32.8518C30.3595 33.077 30.1688 33.3501 30.0413 33.6531C29.9137 33.9561 29.8521 34.2822 29.8604 34.6103C29.8438 35.0895 29.8979 35.5686 30.021 36.0323C30.1425 36.3725 30.3279 36.6869 30.5673 36.959C30.7111 37.1154 30.807 37.196 30.8932 37.196C30.9795 37.196 31.0442 37.0396 31.164 36.722C31.2689 36.4216 31.44 36.148 31.6648 35.9209C31.8023 35.7689 31.9712 35.6478 32.1602 35.5661C32.3491 35.4843 32.5537 35.4436 32.7599 35.4469C33.3949 35.4469 33.8717 35.7598 34.212 36.3949C34.5531 37.0614 34.725 37.8 34.7128 38.5469C34.7128 40.9264 33.5083 42.7797 31.0993 44.1069C29.0497 45.2382 26.5464 45.8038 23.5895 45.8038C18.3625 45.8038 13.9342 44.2041 10.3047 41.0046C6.46112 37.6281 4.53933 33.2776 4.53933 27.953C4.52384 26.3116 4.89378 24.689 5.62004 23.213C6.2545 21.8504 7.24765 20.6815 8.49553 19.8287C9.30951 20.8695 10.3102 21.7532 11.4477 22.4357C12.8615 23.3149 14.2202 23.7557 15.5213 23.7557C16.9591 23.7557 18.0374 23.4808 18.7682 22.931C19.0825 22.7056 19.3343 22.4055 19.5002 22.0583C19.666 21.7111 19.7407 21.3282 19.7171 20.9449C19.7171 19.9566 19.1756 19.0679 18.0973 18.3C17.0044 17.5267 15.7365 17.0303 14.4047 16.8543C13.7201 16.7605 13.0302 16.7106 12.3391 16.705C11.5448 16.694 10.7523 16.784 9.98121 16.9728C9.57662 16.1274 9.24476 15.2498 8.98916 14.3492C8.73939 13.4297 8.61608 12.481 8.62254 11.5289C8.62254 8.48268 9.98041 6.08267 12.6962 4.32887C15.0996 2.77652 17.9966 1.98494 21.3945 1.98494C21.4904 1.98494 21.5934 1.98494 21.6892 1.98494C22.002 2.36786 22.2415 2.80396 22.3961 3.27185C22.5783 3.88331 22.6957 4.89056 22.7364 6.27227C22.7532 6.72731 22.7604 7.22027 22.7604 7.74878V39.0043C22.7604 39.3717 22.4584 39.7888 21.8642 40.2367C21.4264 40.5395 21.0049 40.8646 20.6014 41.2108C20.5545 41.2581 20.5236 41.3185 20.5127 41.3838C20.5025 41.4092 20.4945 41.4353 20.4887 41.462C20.5295 41.6184 20.7044 41.699 21.0135 41.699C21.2124 41.7132 21.7995 41.699 22.7843 41.6184C23.7692 41.5378 24.4354 41.5165 24.8164 41.5165C25.4442 41.5165 26.3979 41.5639 27.6679 41.6658C28.0029 41.7006 28.3401 41.7117 28.6767 41.699C28.9786 41.699 29.144 41.6042 29.1559 41.4075C29.1526 41.3483 29.127 41.2925 29.0841 41.2511C28.6802 40.8876 28.2562 40.5466 27.814 40.2296C27.203 39.7556 26.8915 39.3409 26.8915 38.964V38.8242C26.8532 38.6109 26.8124 38.3052 26.7645 37.9046C26.707 37.4431 26.6806 36.9784 26.6854 36.5134C26.6869 35.5619 26.7558 34.6115 26.8915 33.6694C27.0626 32.4923 27.3311 31.3311 27.6942 30.1974C28.7224 27.1321 30.3857 24.3126 32.5778 21.919C33.9506 20.3992 35.5391 19.0844 37.2936 18.0156C39.1568 16.8874 41.1473 15.979 43.2243 15.3091C44.3888 17.3679 45.3517 19.532 46.0998 21.7721C47.1477 24.8989 47.6717 27.8156 47.6717 30.5221C47.6717 33.4893 47.603 35.6176 47.4656 36.9069C47.2696 38.9843 46.739 41.0174 45.8937 42.929C45.3604 44.0328 44.5715 44.9966 43.5909 45.7422C42.9219 46.2381 42.2061 46.669 41.4535 47.0291C41.2138 47.1476 41.106 47.2803 41.106 47.4368C41.106 47.5932 41.1995 47.6738 41.3983 47.7283C41.971 47.9013 42.5174 48.0909 43.0422 48.2852C43.567 48.4796 44.1612 48.7426 44.8441 49.0721C45.4592 49.3671 46.049 49.7111 46.6078 50.1006C46.9408 50.3376 47.2595 50.5746 47.5519 50.8306C47.6587 50.9244 47.7913 50.9847 47.9329 51.0036C48.1174 51.0036 48.2037 50.8472 48.2037 50.5296C48.2037 49.9253 48.2348 49.2261 48.2899 48.4488C48.3451 47.6714 48.4984 46.4319 48.7356 44.735C49.0935 42.7252 49.4194 40.736 49.7133 38.7673C49.9941 36.9292 50.1399 35.0734 50.1494 33.2144C50.1464 29.8778 49.7352 26.5538 48.9249 23.3149ZM13.5181 18.4043C13.9138 18.408 14.3091 18.4341 14.7018 18.4825C15.296 18.5672 15.8695 18.7592 16.3936 19.0489C17.2035 19.4803 17.5917 19.9969 17.5917 20.6036C17.5917 21.144 17.2897 21.5208 16.6787 21.7104C16.3474 21.8255 15.9994 21.8864 15.6483 21.8906C14.671 21.864 13.7255 21.5404 12.9406 20.9639C12.085 20.4233 11.3844 19.674 10.9062 18.7882C11.7506 18.5235 12.6323 18.3939 13.5181 18.4043ZM37.4493 15.6622C36.1088 16.4141 34.8343 17.2759 33.6393 18.2384C32.2664 19.2991 31.0153 20.5056 29.9084 21.836C28.783 23.2464 27.7734 24.7435 26.8891 26.313V3.20075C27.4839 3.30834 28.0726 3.44678 28.6527 3.6155C31.0547 4.33514 33.3212 5.43918 35.3622 6.88373C35.3622 6.88373 35.3862 6.89795 35.3934 6.90743C36.7145 7.78713 37.9485 8.78858 39.0788 9.89836C40.1979 11.0622 41.2077 12.3243 42.0957 13.669C40.4907 14.1972 38.9359 14.8642 37.4493 15.6622Z" fill="white"/>
</g>
<defs>
<clipPath id="clip0_1043_1243">
<rect width="50" height="51" fill="white" transform="translate(0.147461 0.00390625)"/>
</clipPath>
</defs>
</svg>
