<svg width="262" height="74" viewBox="0 0 262 74" fill="none" xmlns="http://www.w3.org/2000/svg">
<g clip-path="url(#clip0_1253_2928)">
<path d="M59.7634 27.5097C60.0355 27.5009 60.2996 27.417 60.5259 27.2675C60.6038 27.3461 60.6971 27.4081 60.8001 27.4497C60.9031 27.4914 61.0136 27.5118 61.1249 27.5097C61.4668 27.4681 61.7944 27.3494 62.0824 27.1627C62.3704 26.9761 62.6111 26.7265 62.786 26.4332C63.2751 25.84 63.5654 25.1112 63.6165 24.3476C63.6222 24.1965 63.5967 24.0459 63.5417 23.9048C63.4867 23.7637 63.4033 23.6351 63.2965 23.5268C63.1719 23.3845 63.0131 23.2755 62.8346 23.2096C62.6562 23.1438 62.4639 23.1233 62.2754 23.1501H62.0848C61.9237 23.1634 61.7666 23.2068 61.6219 23.2779C61.4062 23.1898 61.1745 23.1463 60.9411 23.1501H60.7505C60.4527 23.1992 60.1705 23.316 59.926 23.491C59.6815 23.6661 59.4814 23.8949 59.3413 24.1592C58.9646 24.722 58.7634 25.3817 58.7627 26.0565C58.792 26.3571 58.8583 26.6531 58.9601 26.9378C59.0187 27.103 59.1271 27.2464 59.2707 27.3486C59.4144 27.4509 59.5864 27.5071 59.7634 27.5097Z" fill="#E4BB89"/>
<path d="M92.1062 27.5097C92.3782 27.5009 92.6424 27.417 92.8686 27.2675C92.9465 27.3461 93.0398 27.4081 93.1429 27.4497C93.2459 27.4914 93.3564 27.5118 93.4677 27.5097C93.8092 27.4671 94.1364 27.348 94.4243 27.1615C94.7122 26.9749 94.9531 26.7258 95.1287 26.4332C95.6179 25.84 95.9081 25.1112 95.9593 24.3476C95.9649 24.1965 95.9395 24.0459 95.8845 23.9048C95.8295 23.7637 95.7461 23.6351 95.6393 23.5268C95.5147 23.3845 95.3558 23.2755 95.1774 23.2096C94.999 23.1438 94.8067 23.1233 94.6182 23.1501H94.4207C94.2618 23.1634 94.107 23.2068 93.9647 23.2779C93.7488 23.1903 93.5172 23.1469 93.2839 23.1501H93.0865C92.7897 23.1997 92.5086 23.3167 92.2653 23.4918C92.0219 23.6669 91.823 23.8954 91.6841 24.1592C91.3074 24.722 91.1062 25.3817 91.1055 26.0565C91.1348 26.3571 91.2011 26.6531 91.3029 26.9378C91.3614 27.103 91.4699 27.2464 91.6135 27.3486C91.7572 27.4509 91.9291 27.5071 92.1062 27.5097Z" fill="#E4BB89"/>
<path d="M191.496 31.6801C191.339 30.5844 191.015 29.5184 190.536 28.5181C189.898 27.0263 188.939 25.69 187.725 24.6025C186.85 23.755 185.688 23.2587 184.464 23.2099C184.215 23.2103 183.967 23.2283 183.722 23.2637C183.517 23.2325 183.31 23.2145 183.102 23.2099C182.501 23.1976 181.904 23.303 181.344 23.5201C180.784 23.7371 180.274 24.0616 179.841 24.4747C178.914 25.379 178.175 26.453 177.663 27.6368C177.105 28.9556 176.698 30.3322 176.451 31.7407C176.206 33.0546 176.078 34.3874 176.07 35.7235V36.7327L176.193 37.6208C175.986 38.2635 175.815 38.9171 175.682 39.5786C175.582 40.0671 175.514 40.5615 175.478 41.0587C175.423 41.1259 175.362 41.1999 175.308 41.2807C175.131 41.5162 174.982 41.7714 174.865 42.0409C174.647 42.4177 174.246 43.0972 173.647 44.0593C173.045 45.1048 172.384 46.1156 171.665 47.0868C170.991 48.0745 170.197 48.9781 169.303 49.7779C168.853 50.2276 168.306 50.5723 167.703 50.787C167.121 50.4996 166.671 50.0042 166.444 49.4011C166.007 48.4924 165.775 47.5008 165.763 46.4947C165.782 45.0042 166.065 43.5286 166.601 42.1351C167.128 40.6265 167.791 39.1675 168.582 37.7755C169.344 36.43 170.032 35.3064 170.624 34.4116L171.713 33.019C172.16 32.5043 172.565 31.9554 172.925 31.3774C173.215 30.9428 173.391 30.4432 173.435 29.9242C173.444 29.612 173.356 29.3046 173.184 29.0429C173.098 28.9061 172.974 28.7969 172.826 28.7288C172.679 28.6607 172.514 28.6366 172.353 28.6594C172.113 28.6663 171.879 28.7335 171.672 28.8545C171.477 28.7101 171.235 28.6408 170.992 28.6594C170.731 28.6765 170.476 28.7448 170.242 28.8604C170.009 28.9759 169.8 29.1363 169.63 29.3322C169.16 29.7493 168.82 30.0655 168.602 30.2808C168.067 30.7886 167.491 31.2521 166.88 31.6667C166.624 31.8459 166.35 31.9992 166.063 32.1242C166.022 32.0403 166.001 31.9482 166.002 31.8551C166.084 31.2412 166.318 30.6568 166.682 30.1529C167.152 29.3523 167.601 28.4845 168.044 27.5627C168.456 26.8009 168.689 25.9569 168.725 25.0937C168.725 24.3401 168.364 23.9567 167.635 23.9567C167.404 23.9674 167.181 24.0471 166.996 24.1854C166.79 24.0273 166.534 23.9463 166.274 23.9567C166.028 23.9894 165.793 24.0743 165.584 24.2055C165.375 24.3368 165.197 24.5112 165.062 24.7169C164.62 25.1997 164.234 25.7301 163.912 26.2979C163.657 26.7044 163.43 27.1269 163.231 27.5627C163.018 28.073 162.847 28.5995 162.72 29.137C162.639 29.6174 162.596 30.1033 162.591 30.5902C162.591 30.9951 162.634 31.3987 162.72 31.7945C162.788 32.0735 162.874 32.3477 162.979 32.6153C162.253 34.2569 161.443 35.9635 160.549 37.7351C159.943 38.9865 159.296 40.2513 158.636 41.5229C158.536 41.6396 158.451 41.7685 158.384 41.9064C157.886 42.9673 157.329 44.0005 156.716 45.0011C156.219 45.8903 155.57 46.6871 154.796 47.3559C154.333 47.7288 153.795 47.9995 153.217 48.1497C152.797 48.0547 152.404 47.8686 152.066 47.6048C151.533 47.2109 151.058 46.7443 150.657 46.2189C150.276 45.6672 149.977 45.2299 149.759 44.8733C148.626 43.0285 147.725 41.0538 147.077 38.9932C146.355 36.6385 145.715 34.1335 145.157 31.4783C144.599 28.8231 144.145 26.1679 143.795 23.5126C143.414 20.9023 143.074 18.5027 142.774 16.3139C142.515 14.1207 142.264 12.3513 142.005 11.0057C141.967 10.5991 141.786 10.2185 141.494 9.92925C141.535 9.5054 141.556 9.10846 141.556 8.73171C141.601 8.37461 141.623 8.01512 141.624 7.65527C141.703 6.01101 141.278 4.38141 140.405 2.97946C139.622 1.83574 138.247 1.35133 136.321 1.5128C135.809 1.45928 135.293 1.45928 134.782 1.5128C134.353 1.59353 134.142 1.74156 134.142 1.95684C134.142 2.17213 134.312 2.27305 134.653 2.27305H134.721C135.216 2.22273 135.717 2.30778 136.167 2.51894C136.617 2.73009 137 3.05926 137.274 3.47059C137.843 4.49879 138.11 5.66417 138.043 6.83448C138.016 8.53663 137.801 10.2308 137.403 11.887C136.976 13.7843 136.443 15.7443 135.803 17.7671C135.163 19.7899 134.526 21.6625 133.89 23.3848C133.209 25.1542 132.59 26.6949 132.032 28.0001C131.474 29.3052 131.092 30.1933 130.881 30.6508C130.33 31.8349 129.751 33.0122 129.159 34.1896C128.567 35.367 127.94 36.5712 127.301 37.7957C125.469 38.2599 123.488 38.8654 121.357 39.6256C119.399 40.3044 117.514 41.1719 115.728 42.2158C113.655 43.3239 111.809 44.8021 110.282 46.5754C109.301 47.6872 108.718 49.0866 108.621 50.5583C108.621 52.1595 109.471 53.5701 111.173 54.7901C111.521 54.9986 112.011 55.2745 112.644 55.6108C113.171 55.9215 113.73 56.1763 114.312 56.3711C112.736 58.0041 110.951 59.4268 109.002 60.6029C107.711 61.4189 106.253 61.9406 104.733 62.1301C104.351 62.0688 104.008 61.8609 103.78 61.5515C103.427 60.8695 103.292 60.0977 103.392 59.338C103.238 59.4717 103.127 59.6471 103.072 59.8426C103.005 60.0267 102.964 60.2192 102.95 60.4145C102.825 60.9637 102.877 61.5378 103.1 62.0561C102.825 61.962 102.587 61.7856 102.419 61.5515C102.066 60.8695 101.93 60.0977 102.031 59.338C101.876 59.4717 101.765 59.6471 101.711 59.8426C101.643 60.0267 101.602 60.2192 101.588 60.4145C101.418 61.464 101.588 62.1839 102.16 62.5606C102.803 62.9775 103.575 63.1562 104.339 63.0652L104.733 63.0181C105.053 63.0655 105.377 63.0813 105.7 63.0652C107.642 62.8304 109.505 62.1608 111.146 61.1074C113.105 59.9623 114.917 58.589 116.545 57.0169C117.245 57.1763 117.954 57.2976 118.669 57.3802C119.833 57.5513 121.011 57.6144 122.188 57.5686C122.631 57.5686 123.073 57.5686 123.55 57.5686C124.026 57.5686 124.319 57.4475 124.319 57.1919C124.319 56.9362 124.142 56.9362 123.801 56.9362H123.679C121.585 56.9918 119.495 56.7378 117.477 56.1827C119.947 53.7617 122.153 51.092 124.06 48.217C126.062 45.2299 128.043 42.0723 130.003 38.7443C131.882 38.233 133.883 37.7755 136.014 37.3517C138.145 36.9278 140.099 36.4905 141.964 36.1541L142.134 36.0868C142.257 36.6856 142.386 37.2777 142.515 37.8562C143.027 40.1033 143.89 42.2576 145.075 44.2409C145.869 45.4513 146.767 46.5925 147.757 47.6519C148.235 48.1504 148.81 48.5476 149.448 48.8194C150.086 49.0912 150.773 49.2319 151.467 49.2329C151.677 49.2291 151.887 49.2088 152.094 49.1724C152.337 49.2098 152.583 49.23 152.829 49.2329C153.493 49.2188 154.147 49.0675 154.749 48.7889C155.558 48.4872 156.314 48.0602 156.988 47.5241C157.477 47.1409 157.933 46.7178 158.35 46.2592C158.86 45.6739 159.357 45.0482 159.827 44.3956C160.337 43.8513 160.743 43.2199 161.025 42.532C161.452 41.635 161.942 40.5608 162.496 39.3094C163.049 38.0581 163.605 36.8157 164.164 35.5823C164.62 34.6 164.96 33.8667 165.185 33.3486C165.284 33.3559 165.385 33.3559 165.484 33.3486C165.735 33.348 165.985 33.3277 166.233 33.2881C166.434 33.3302 166.64 33.3505 166.846 33.3486C167.034 33.3585 167.223 33.3585 167.411 33.3486C166.73 34.4654 166.049 35.6697 165.423 36.9884C164.748 38.443 164.171 39.9398 163.694 41.4691C163.25 42.8809 163.02 44.3501 163.013 45.8287C163.001 47.2459 163.374 48.6402 164.095 49.8653C164.381 50.4442 164.828 50.9301 165.384 51.2652C165.941 51.6003 166.582 51.7706 167.234 51.7558C167.462 51.7543 167.69 51.734 167.915 51.6953C168.139 51.7377 168.367 51.7579 168.595 51.7558C169.938 51.7117 171.216 51.1716 172.176 50.2421C173.227 49.4265 174.133 48.4443 174.858 47.3357C175.056 47.0195 175.41 46.4274 175.9 45.5663C175.968 45.8219 176.029 46.0776 176.111 46.3265C176.479 47.5364 177.135 48.6416 178.024 49.5491C178.96 50.4036 180.202 50.8561 181.475 50.8072C181.68 50.8052 181.885 50.7894 182.088 50.7601C182.336 50.7932 182.586 50.8089 182.837 50.8072C183.955 50.8179 185.042 50.4392 185.907 49.7375C186.837 48.9845 187.637 48.0869 188.276 47.08C188.936 46.1008 189.51 45.0677 189.992 43.992C190.606 42.6135 191.062 41.1715 191.353 39.6929C191.691 38.159 191.862 36.5937 191.864 35.0238C191.848 33.9003 191.725 32.7808 191.496 31.6801ZM120.908 48.3583C119.278 50.7776 117.457 53.0654 115.462 55.2005C115.272 55.0659 115.067 54.9112 114.849 54.743C114.431 54.445 114.045 54.1045 113.699 53.7271C113.358 53.2267 113.057 52.7003 112.8 52.1528C112.589 51.6073 112.48 51.0281 112.48 50.4439C112.496 49.7121 112.694 48.9954 113.059 48.3583C113.543 47.5208 114.169 46.772 114.911 46.1449C115.759 45.4526 116.67 44.8399 117.634 44.3149C118.866 43.6018 120.105 42.9223 121.344 42.2966C122.583 41.6709 123.556 41.1798 124.285 40.8434C124.838 40.5451 125.413 40.2909 126.007 40.0831H126.055C124.466 42.9492 122.751 45.7076 120.908 48.3583ZM141.065 12.7011C141.127 13.3739 141.181 14.013 141.236 14.7194C141.154 14.1139 141.072 13.5488 140.997 13.024C141.018 12.9164 141.045 12.8222 141.065 12.7213V12.7011ZM141.746 35.192C141.746 35.0709 141.665 35.0104 141.494 35.0104H141.304C139.683 35.3468 137.811 35.6832 135.674 36.0801C134.094 36.3627 132.576 36.6722 131.092 37.0018C132.127 35.2077 133.087 33.4271 133.972 31.66C134.564 30.523 135.333 28.9218 136.205 26.8563C137.076 24.7909 138.063 22.4564 138.928 19.9671C139.323 18.8727 139.679 17.7895 139.997 16.7176C140.085 17.9757 140.174 19.2876 140.255 20.6668C140.469 23.5732 140.745 26.5199 141.086 29.5071C141.311 31.485 141.596 33.3621 141.93 35.1517L141.746 35.192ZM158.084 45.055C157.58 45.9254 156.929 46.7037 156.158 47.3559C155.773 47.646 155.343 47.8731 154.885 48.0286C155.13 47.8739 155.375 47.7057 155.627 47.5173C156.116 47.1342 156.571 46.7111 156.988 46.2525C157.499 45.6672 157.996 45.0415 158.466 44.3889C158.329 44.6244 158.207 44.8531 158.071 45.0751L158.084 45.055ZM161.917 37.789C161.577 38.4617 161.236 39.1951 160.862 39.9082L161.127 39.3027C161.726 37.9975 162.282 36.7551 162.795 35.5755C163.347 34.3982 163.728 33.5572 163.946 33.0459L164.15 33.1064C163.442 34.6336 162.72 36.1945 161.903 37.8091L161.917 37.789ZM165.096 49.4146C164.717 48.626 164.486 47.7756 164.415 46.9051C164.549 47.9469 164.894 48.9514 165.43 49.8586C165.576 50.0964 165.742 50.3215 165.927 50.5314C165.564 50.2343 165.276 49.8592 165.083 49.4347L165.096 49.4146ZM178.977 40.063C179.564 40.7402 180.213 41.3619 180.917 41.9198C180.655 41.8138 180.406 41.6783 180.175 41.5162C179.719 41.1978 179.309 40.8198 178.956 40.3926C178.95 40.2984 178.95 40.1908 178.963 40.0831L178.977 40.063ZM177.826 31.7205C177.826 31.8551 177.786 31.9829 177.765 32.1175C177.833 31.2273 178.018 30.3497 178.317 29.5071C178.378 29.3456 178.446 29.1909 178.514 29.0361C178.212 29.9191 177.978 30.8231 177.813 31.7407L177.826 31.7205ZM185.798 46.4409C184.763 48.1026 183.654 49.058 182.462 49.3271C181.502 49.0265 180.69 48.3807 180.189 47.5173C179.34 46.2525 178.916 44.4001 178.916 41.9602V41.3749C179.295 41.7169 179.692 42.0381 180.107 42.3369C181.011 42.959 182.082 43.301 183.184 43.3192C183.412 43.3189 183.64 43.3009 183.865 43.2654C184.09 43.2997 184.318 43.3177 184.545 43.3192C185.232 43.328 185.911 43.1758 186.526 42.8752C186.766 42.7738 186.994 42.6475 187.207 42.4984C187.355 42.3982 187.486 42.2756 187.595 42.1351C187.236 43.6657 186.625 45.1273 185.784 46.4611L185.798 46.4409ZM187.718 41.7314L187.657 41.9467C187.657 41.8929 187.616 41.8593 187.541 41.8593L187.098 41.9871L186.227 42.162C186.274 42.1146 186.302 42.0529 186.309 41.9871C186.311 41.9698 186.309 41.9522 186.303 41.9357C186.298 41.9192 186.288 41.9042 186.276 41.8919C186.263 41.8795 186.248 41.8702 186.231 41.8645C186.215 41.8589 186.197 41.8571 186.179 41.8593L185.737 41.9871C185.349 42.0678 184.947 42.1553 184.518 42.236C184.321 42.2764 184.137 42.3033 183.946 42.3235C183.087 42.2832 182.254 42.0135 181.536 41.5431C180.853 41.0841 180.283 40.4795 179.869 39.7737C179.602 39.3276 179.429 38.8336 179.358 38.3205C179.361 38.062 179.405 37.8055 179.487 37.5602C179.562 37.3527 179.625 37.1417 179.678 36.9278C179.807 36.4636 179.998 35.8312 180.257 35.0373C180.564 34.1727 180.925 33.3278 181.339 32.5077C181.754 31.7444 182.246 31.0253 182.81 30.3615C183.21 29.8209 183.809 29.4564 184.477 29.3456C184.477 28.9689 184.239 28.7805 183.797 28.7805C183.524 28.7882 183.257 28.8621 183.021 28.9958C182.947 28.9163 182.856 28.8553 182.754 28.8178C182.652 28.7804 182.543 28.7676 182.435 28.7805C182.083 28.8211 181.744 28.9314 181.436 29.1048C181.128 29.2782 180.859 29.5111 180.645 29.7896C180.114 30.3228 179.636 30.9039 179.215 31.5254C179.317 30.8394 179.481 30.1639 179.705 29.5071C180.118 28.363 180.723 27.2962 181.496 26.3517C182.092 25.5663 182.968 25.0346 183.946 24.8649C184.663 24.9757 185.311 25.3477 185.764 25.9077C186.484 26.7055 187.008 27.6562 187.296 28.6863C187.642 29.8885 187.899 31.1139 188.065 32.3529C188.236 33.6512 188.32 34.9592 188.317 36.2685C188.304 38.1033 188.098 39.9317 187.704 41.7247L187.718 41.7314ZM181.271 30.5364L181.434 30.3346C181.497 30.2663 181.563 30.2011 181.632 30.1395C181.509 30.2875 181.387 30.4221 181.271 30.5364Z" fill="#E4BB89"/>
<path d="M98.6413 39.3839C98.3871 39.3839 98.0263 39.8683 97.5589 40.8371C97.3002 41.3821 97.0211 41.9001 96.7351 42.4182C96.81 42.25 96.8985 42.075 96.9598 41.9136C97.278 41.2822 97.4742 40.5977 97.5384 39.8952C97.5384 39.5588 97.4499 39.3907 97.2797 39.3907C97.1096 39.3907 96.6671 39.8751 96.1973 40.8439C95.4923 42.3244 94.6563 43.7405 93.6989 45.0756C92.9103 46.2244 91.9973 47.2847 90.9759 48.2377C90.5088 48.6517 89.972 48.9818 89.3898 49.2132C89.1126 49.0389 88.8926 48.7888 88.7567 48.4933C88.4481 47.5771 88.3165 46.6117 88.3686 45.6475C88.3149 43.9379 88.5448 42.2311 89.0494 40.5949C89.56 39.2494 90.2407 37.7087 91.0917 35.9797C91.4729 35.2194 91.9018 34.4188 92.3715 33.5779C92.809 32.7824 93.0428 31.893 93.0522 30.9877C93.0743 30.6239 92.9605 30.2648 92.7323 29.9785C92.651 29.834 92.5297 29.7154 92.3825 29.6368C92.2354 29.5581 92.0686 29.5226 91.9018 29.5345C91.6584 29.5447 91.4227 29.6215 91.221 29.7565C91.0309 29.5996 90.7875 29.5202 90.5402 29.5345C90.2132 29.5697 89.9007 29.6871 89.6325 29.8756C89.3644 30.064 89.1496 30.3172 89.0085 30.6109C88.475 31.3944 88.0039 32.2177 87.5994 33.0733C87.3883 33.6182 87.0684 34.5466 86.6395 35.8518C86.2106 37.157 85.8975 38.6102 85.5571 40.2114C85.2837 41.6805 85.1492 43.1715 85.1554 44.6652C85.1267 45.9705 85.3894 47.2661 85.9247 48.4597C86.184 48.9994 86.6058 49.4468 87.1322 49.7406C87.6586 50.0345 88.264 50.1604 88.8656 50.1013C89.0938 50.0992 89.3214 50.079 89.5463 50.0407C89.7714 50.0774 89.999 50.0976 90.2271 50.1013C91.3226 50.0906 92.3816 49.7109 93.2292 49.0248C94.1651 48.3152 95.0028 47.4874 95.7208 46.5625C96.2464 45.9156 96.7026 45.2167 97.0823 44.4768C97.5657 43.643 97.991 42.7776 98.3554 41.8867C98.6736 41.2553 98.8698 40.5708 98.934 39.8683C98.8999 39.5521 98.8115 39.3839 98.6413 39.3839Z" fill="#E4BB89"/>
<path d="M6.22906 18.158C6.61029 17.7745 6.73963 17.4852 6.61028 17.3305C6.4135 16.8934 6.30482 16.4227 6.29033 15.9445C6.30443 14.8782 6.53597 13.8256 6.97109 12.8498C7.42492 11.715 7.89239 10.6184 8.37346 9.55988L9.20397 7.72993C9.42181 7.22534 9.48309 6.9495 9.39459 6.90914C9.30609 6.86877 9.03379 7.07732 8.56407 7.66937C8.09434 8.26141 7.63143 9.01492 7.03236 10.0039L6.31075 11.1745C6.54221 10.6229 6.78047 10.0914 6.99151 9.55988L7.82203 7.72993C8.03988 7.22534 8.10114 6.9495 8.01264 6.90914C7.92415 6.86877 7.65185 7.07732 7.18213 7.66937C6.71241 8.26141 6.24949 9.01492 5.65042 10.0039L3.73068 13.0987C3.09077 14.1931 2.51666 15.1843 2.00836 16.0724C1.70883 16.5209 1.38887 17.0255 1.04849 17.5861C0.748865 17.9757 0.571357 18.4435 0.537924 18.9317C0.531967 19.047 0.55878 19.1617 0.615321 19.2627C0.671863 19.3638 0.75588 19.4472 0.857881 19.5035C1.26367 19.6557 1.69781 19.72 2.1309 19.6919C2.29246 19.6894 2.45286 19.6645 2.60743 19.6179C2.89924 19.6713 3.19568 19.6961 3.49242 19.6919C3.97824 19.6668 4.44837 19.5134 4.85393 19.2479C5.36384 18.9531 5.82716 18.5859 6.22906 18.158Z" fill="#E4BB89"/>
<path d="M199.455 36.4169C199.455 36.5851 199.496 36.6726 199.578 36.6726C199.659 36.6726 199.966 36.4169 200.218 35.9123C200.898 34.6071 201.538 33.3625 202.137 32.1851C202.736 31.0078 203.376 29.8237 203.928 28.6463C205.294 25.669 206.405 22.5836 207.25 19.4225C207.858 17.3238 208.203 15.1592 208.278 12.9773C208.278 11.2102 207.978 9.92517 207.379 9.12232C207.154 8.73495 206.828 8.41372 206.436 8.19149C206.043 7.96925 205.598 7.85399 205.146 7.8575C204.904 7.86214 204.663 7.8869 204.425 7.93151C204.215 7.88251 204 7.85767 203.785 7.8575C202.246 7.8575 200.646 8.78369 198.985 10.6361C197.566 12.2682 196.481 14.158 195.793 16.1999C194.889 18.6986 194.245 21.282 193.873 23.91C193.48 26.809 193.287 29.7311 193.294 32.6561C193.284 35.8259 193.512 38.9921 193.975 42.1288C194.393 45.0078 195.077 47.843 196.017 50.5991C196.795 52.8519 197.983 54.945 199.523 56.7751C199.895 57.228 200.302 57.651 200.742 58.04C201.178 58.4337 201.744 58.6583 202.335 58.6724C202.569 58.6954 202.806 58.651 203.015 58.5446C203.234 58.6236 203.464 58.6668 203.696 58.6724C204.214 58.6724 204.465 58.5647 204.465 58.3562C204.465 58.1476 204.275 58.04 203.894 58.04C203.643 57.9927 203.409 57.8839 203.213 57.7238L202.702 57.347C201.919 56.586 201.308 55.6685 200.912 54.6559C200.36 53.3154 199.891 51.9426 199.51 50.5452C199.081 49.0718 198.74 47.6657 198.482 46.3135C198.223 44.9612 198.039 43.8915 197.91 43.0909C197.61 41.243 197.354 39.1798 197.141 36.9013C196.927 34.6228 196.814 32.23 196.8 29.7228C196.798 26.4998 197.099 23.2836 197.699 20.1155C198.192 17.1631 199.303 14.3448 200.96 11.8404C201.523 10.9096 202.305 10.1271 203.24 9.55964C204.003 10.0104 204.391 11.3492 204.391 13.5963C204.391 20.7143 202.45 27.8749 198.57 35.0781C198.319 35.4864 198.167 35.9472 198.128 36.4236C198.128 36.5918 198.168 36.6793 198.25 36.6793C198.332 36.6793 198.638 36.4236 198.89 35.919C199.571 34.6139 200.211 33.3692 200.81 32.1919C201.409 31.0145 202.049 29.8304 202.6 28.6531C203.152 27.4757 203.642 26.2176 204.077 25.0941C203.054 28.5633 201.665 31.9165 199.932 35.0983C199.672 35.4956 199.509 35.9469 199.455 36.4169ZM200.885 56.7751C201.096 57.0375 201.341 57.2932 201.599 57.5556L201.314 57.347C200.844 56.9102 200.448 56.4013 200.143 55.84C200.354 56.1562 200.606 56.4724 200.885 56.7751Z" fill="#E4BB89"/>
<path d="M250.682 50.317C250.383 50.317 250.063 50.317 249.722 50.317C249.589 50.3087 249.454 50.3087 249.321 50.317C248.422 50.317 247.36 50.3843 246.121 50.5054C245.44 50.5794 244.76 50.6736 244.113 50.7745C244.226 49.3661 244.285 47.8658 244.29 46.2736C244.29 44.031 244.183 41.7884 243.97 39.5458C243.818 37.3835 243.541 35.2315 243.139 33.1006C242.9 31.4977 242.471 29.9283 241.86 28.4248C241.816 28.3021 241.749 28.189 241.661 28.092C241.574 27.9951 241.467 27.9161 241.349 27.8597C241.111 27.7382 240.847 27.6737 240.58 27.6713C240.342 27.6676 240.107 27.7256 239.899 27.8395C239.686 27.7369 239.455 27.6796 239.218 27.6713C238.892 27.6781 238.577 27.789 238.32 27.9875C238.188 28.1069 238.085 28.2543 238.019 28.4186C237.953 28.5829 237.925 28.7598 237.938 28.9361V29.1245L238.517 30.7661C236.938 34.2645 235.488 37.4042 234.167 40.185C233.609 41.3691 233.091 42.4253 232.615 43.3874C232.683 42.4253 232.717 41.5844 232.717 40.8847C232.72 39.0635 232.57 37.2452 232.268 35.4486C232.083 33.9262 231.622 32.4493 230.906 31.089C230.679 30.5684 230.305 30.1241 229.827 29.81C229.35 29.4959 228.791 29.3256 228.217 29.3196C228.003 29.3227 227.79 29.3544 227.584 29.4138C227.346 29.3511 227.102 29.3194 226.856 29.3196C226.173 29.3594 225.512 29.5777 224.943 29.952C224.328 30.2972 223.747 30.6981 223.207 31.1496C223.03 28.7814 222.415 26.9873 221.362 25.7674C220.947 25.1902 220.401 24.7176 219.767 24.388C219.133 24.0584 218.429 23.881 217.713 23.8701C217.485 23.8723 217.258 23.8903 217.032 23.9239C216.807 23.888 216.58 23.87 216.352 23.8701C215.09 23.896 213.874 24.3417 212.9 25.1349C211.743 25.9824 210.729 27.0067 209.898 28.1692C209.059 29.3651 208.33 30.6327 207.72 31.9569C207.199 33.0502 206.793 34.1931 206.508 35.3679C206.068 35.9331 205.664 36.524 205.296 37.1373C204.808 37.9304 204.422 38.7801 204.146 39.6669C203.928 40.3397 203.737 41.0596 203.567 41.8131C203.439 42.5238 203.376 43.2442 203.376 43.966C203.368 44.849 203.521 45.7262 203.826 46.5562C204.125 47.3653 204.632 48.0838 205.296 48.6418C206.153 49.4114 207.269 49.8383 208.427 49.8393C208.683 49.8379 208.937 49.8199 209.19 49.7855C209.388 49.8171 209.588 49.835 209.789 49.8393C211.262 49.8003 212.687 49.3166 213.874 48.4534C215.13 47.6142 216.287 46.6394 217.325 45.547C219.019 43.7541 220.42 41.7112 221.478 39.492C222.396 37.6925 222.977 35.7437 223.193 33.7398C223.319 33.6217 223.437 33.4959 223.547 33.363C223.967 32.8175 224.437 32.3108 224.949 31.8493C225.303 31.5345 225.724 31.3043 226.182 31.1765C226.737 31.3404 227.206 31.7122 227.489 32.2126C228.06 33.12 228.451 34.1271 228.639 35.1795C228.908 36.4913 229.058 37.8242 229.088 39.1624C229.175 40.5528 229.218 41.9207 229.218 43.2663V48.2583C229.252 48.4811 229.273 48.7058 229.279 48.9311C229.304 49.4238 229.459 49.9016 229.728 50.317C229.816 50.442 229.93 50.5465 230.063 50.6232C230.196 50.6999 230.344 50.7469 230.498 50.761C230.772 50.7563 231.036 50.6536 231.24 50.4717C231.402 50.6424 231.623 50.7458 231.859 50.761C232.062 50.7533 232.261 50.6981 232.439 50.5998C232.616 50.5016 232.767 50.3632 232.88 50.1959C233.167 49.9466 233.367 49.6148 233.452 49.2473C233.75 46.8394 234.488 44.5051 235.631 42.358C236.733 40.0392 237.97 37.2315 239.341 33.9349C239.722 35.5024 240.083 37.2517 240.403 39.196C240.887 42.2693 241.115 45.3768 241.083 48.487V49.8797C241.085 50.3649 241.063 50.8499 241.015 51.3329C237.978 51.9373 235.034 52.9348 232.261 54.2998C229.912 55.4728 227.684 56.8698 225.61 58.4711C224.48 59.3695 223.411 60.3403 222.41 61.3775C221.459 62.4635 220.633 63.6503 219.946 64.9163C219.252 66.062 218.876 67.3687 218.857 68.704C218.83 69.3506 218.954 69.9947 219.219 70.5863C219.485 71.1779 219.885 71.701 220.388 72.115C221.516 73.0435 222.953 73.5233 224.418 73.4605C224.63 73.4605 224.841 73.4605 225.058 73.4269C225.276 73.3933 225.528 73.4605 225.78 73.4605C227.095 73.4355 228.396 73.178 229.619 72.7003C231.157 72.1646 232.601 71.3976 233.901 70.4263C236.232 68.5834 238.202 66.3353 239.715 63.7927C241.635 60.8863 243.042 57.0111 243.936 52.1671C245.005 51.9115 246.046 51.7029 247.067 51.5347C248.088 51.3665 249.178 51.2993 250.206 51.2185C251.097 51.1311 251.567 50.9225 251.567 50.5861C251.513 50.4045 251.261 50.317 250.682 50.317ZM208.373 38.1263C208.826 39.3807 209.499 40.5467 210.361 41.5709C209.508 41.0596 208.813 40.3265 208.353 39.4516C208.25 39.2027 208.162 38.974 208.094 38.7789C208.148 38.5434 208.237 38.3348 208.373 38.1263ZM219.946 30.6652C219.802 32.7054 219.416 34.7219 218.795 36.6731C218.208 38.6824 217.371 40.6122 216.304 42.4186C215.32 44.139 214.018 45.6613 212.464 46.906C211.604 47.6533 210.567 48.174 209.449 48.4198C208.756 48.278 208.135 47.9021 207.692 47.3568C206.998 46.428 206.658 45.2866 206.732 44.1342C206.774 42.606 207.092 41.0975 207.672 39.6804C208.069 40.4 208.541 41.0764 209.081 41.6987C209.52 42.21 210.07 42.6174 210.69 42.891C211.309 43.1646 211.983 43.2975 212.662 43.2797H213.043C213.14 43.2742 213.236 43.2584 213.329 43.2327C213.555 43.2616 213.782 43.2774 214.01 43.2797H214.391C214.521 43.2809 214.65 43.2581 214.772 43.2125C214.966 43.2021 215.159 43.1819 215.351 43.1519C215.691 43.0712 215.861 42.9434 215.861 42.7752C215.861 42.7508 215.855 42.7269 215.844 42.7049C215.834 42.6828 215.819 42.6633 215.8 42.6473C214.367 42.6464 212.959 42.2753 211.716 41.5709C210.846 41.0571 210.139 40.3139 209.673 39.4247C209.373 38.7908 209.2 38.1054 209.163 37.4064C209.149 37.2159 209.17 37.0246 209.224 36.8413C209.268 36.5477 209.378 36.2675 209.544 36.0205C209.762 35.7648 209.952 35.5563 210.123 35.3881C210.374 35.0113 210.803 34.4798 211.334 33.807C211.918 33.1029 212.538 32.4292 213.193 31.7887C213.825 31.1773 214.531 30.6461 215.296 30.2077C215.579 30.0307 215.894 29.9116 216.224 29.8572C216.554 29.8029 216.891 29.8146 217.216 29.8915C217.302 29.6358 217.282 29.4676 217.155 29.3869C217.051 29.2518 216.914 29.1455 216.757 29.0783C216.599 29.0111 216.427 28.9853 216.256 29.0034C215.995 29.0093 215.736 29.0524 215.487 29.1312C215.303 29.0421 215.1 28.9983 214.895 29.0034C214.192 29.0513 213.512 29.2684 212.914 29.6358C212.297 29.9775 211.705 30.362 211.144 30.7863C211.198 30.6383 211.259 30.4902 211.334 30.3355C211.758 29.5202 212.274 28.755 212.873 28.0548C213.524 27.3243 214.275 26.688 215.106 26.1643C215.642 25.8404 216.232 25.6126 216.848 25.4915L217.073 25.5386C217.614 25.6314 218.122 25.8602 218.548 26.2031C218.973 26.546 219.302 26.9914 219.503 27.4964C219.887 28.5071 220.038 29.5895 219.946 30.6652ZM223.288 32.3942V32.2462C223.288 32.2058 223.288 32.1722 223.288 32.1318L223.615 31.8089C223.813 31.6455 224.027 31.5034 224.255 31.385C223.914 31.7009 223.593 32.038 223.295 32.3942H223.288ZM235.542 40.1446C234.664 42.0015 233.888 43.5758 233.214 44.8877C233.52 44.0871 233.895 43.2461 234.31 42.358C235.631 39.5817 237.144 36.1057 238.851 31.93L239.034 32.6028C237.775 35.3612 236.604 37.8773 235.528 40.1446H235.542ZM237.38 62.7634C235.412 65.8849 232.686 68.4706 229.449 70.285C228.487 70.8702 227.456 71.3378 226.379 71.6777C225.799 71.8643 225.201 71.995 224.595 72.0679C223.905 72.003 223.257 71.7089 222.757 71.2337C222.452 70.9403 222.213 70.5855 222.058 70.1932C221.903 69.8009 221.835 69.3802 221.859 68.9597C221.887 67.8481 222.196 66.7611 222.757 65.7976C223.391 64.692 224.139 63.6548 224.99 62.7028C225.877 61.7533 226.818 60.8548 227.809 60.0117C229.931 58.2432 232.241 56.707 234.698 55.4301C236.689 54.4439 238.756 53.6139 240.879 52.9476C240.406 56.4239 239.21 59.7659 237.367 62.7634H237.38Z" fill="#E4BB89"/>
<path d="M261.221 39.5112C260.833 39.5112 260.492 39.8476 260.193 40.5271C260.138 40.6482 260.077 40.7558 260.016 40.8769C260.153 40.6093 260.229 40.3155 260.24 40.0157C260.24 39.6794 260.111 39.5112 259.859 39.5112C259.471 39.5112 259.131 39.8476 258.831 40.5271C257.917 42.6239 256.641 44.5476 255.06 46.212C254.294 46.9975 253.338 47.5764 252.282 47.894C251.803 47.7557 251.359 47.5171 250.98 47.1944C250.602 46.8717 250.299 46.4725 250.09 46.0236C249.286 44.2806 248.915 42.3731 249.008 40.4598C249.008 39.9956 249.008 39.5313 249.055 39.0671C249.119 39.0541 249.181 39.0338 249.239 39.0066C249.414 38.9416 249.585 38.8652 249.75 38.7778C249.727 38.8312 249.713 38.8881 249.709 38.946C249.709 39.0739 249.797 39.1344 249.968 39.1344C250.186 39.1426 250.403 39.0988 250.601 39.0066C251.54 38.6265 252.374 38.0289 253.031 37.2641C253.881 36.345 254.612 35.3259 255.209 34.2299C255.763 33.2417 256.069 32.1365 256.101 31.0073C256.132 30.5685 256.068 30.1283 255.914 29.7155C255.761 29.3028 255.52 28.9268 255.209 28.6122C254.927 28.3247 254.588 28.0975 254.213 27.9448C253.839 27.792 253.436 27.7169 253.031 27.7241C252.802 27.7257 252.574 27.7505 252.35 27.7981C252.127 27.7496 251.898 27.7248 251.67 27.7241C250.679 27.7766 249.735 28.1556 248.987 28.8005C247.907 29.7108 247.089 30.8877 246.618 32.2115C245.912 34.1512 245.589 36.2066 245.665 38.2665C245.665 42.1462 246.219 44.9898 247.326 46.7973C248.434 48.6049 249.775 49.5019 251.35 49.4884C251.578 49.484 251.805 49.4638 252.03 49.4279C252.255 49.4662 252.483 49.4864 252.711 49.4884C254.209 49.4884 255.74 48.7484 257.32 47.275C259.096 45.4961 260.468 43.363 261.343 41.0182C261.503 40.7261 261.591 40.4013 261.602 40.0696C261.602 39.6794 261.472 39.5112 261.221 39.5112ZM249.328 36.7326C249.668 34.3285 250.199 32.6443 250.921 31.68C251.283 31.1623 251.746 30.721 252.282 30.3816C252.393 30.4615 252.491 30.5567 252.575 30.6641C252.849 31.0279 252.985 31.4761 252.956 31.929C252.88 33.0873 252.482 34.2024 251.806 35.1516C251.175 36.1829 250.35 37.085 249.375 37.809L249.171 37.9503C249.219 37.5467 249.273 37.1497 249.328 36.7326Z" fill="#E4BB89"/>
<path d="M60.8655 49.0528C61.8014 48.3432 62.639 47.5153 63.3571 46.5904C63.8826 45.9436 64.3389 45.2447 64.7186 44.5048C65.2014 43.6697 65.6289 42.8045 65.9984 41.9146C66.312 41.282 66.5058 40.5979 66.5702 39.8963C66.5702 39.5599 66.4886 39.3917 66.3116 39.3917C66.1346 39.3917 65.6989 39.8761 65.2291 40.8449C64.9705 41.3832 64.6913 41.9079 64.4122 42.4192C64.4803 42.251 64.5688 42.0828 64.6369 41.9214C64.9505 41.2887 65.1443 40.6047 65.2087 39.903C65.2087 39.5666 65.127 39.3985 64.95 39.3985C64.773 39.3985 64.3373 39.8829 63.8676 40.8517C63.1623 42.3307 62.3287 43.7466 61.3761 45.0834C60.5853 46.2306 59.6724 47.2907 58.653 48.2455C58.1879 48.6623 57.6506 48.9927 57.0669 49.221C56.7897 49.0467 56.5697 48.7966 56.4337 48.5011C56.1252 47.5849 55.9936 46.6195 56.0457 45.6553C55.992 43.9457 56.2219 42.2389 56.7265 40.6027C57.237 39.2572 57.9178 37.7165 58.7688 35.9875C59.1568 35.2272 59.5789 34.4266 60.0486 33.5857C60.4861 32.7902 60.7198 31.9008 60.7293 30.9955C60.7514 30.6317 60.6376 30.2726 60.4094 29.9863C60.3281 29.8418 60.2068 29.7232 60.0596 29.6446C59.9125 29.5659 59.7457 29.5304 59.5788 29.5423C59.3355 29.5525 59.0998 29.6294 58.8981 29.7643C58.7087 29.6062 58.4647 29.5266 58.2173 29.5423C57.8903 29.5775 57.5778 29.6949 57.3096 29.8834C57.0415 30.0718 56.8267 30.325 56.6856 30.6187C56.1521 31.4022 55.681 32.2255 55.2765 33.0811C55.0654 33.626 54.7455 34.5545 54.3166 35.8597C53.8877 37.1648 53.5746 38.618 53.2342 40.2192C52.9427 41.6979 52.7922 43.2003 52.7849 44.7067C52.7595 46.0117 53.022 47.3065 53.5541 48.5011C53.8135 49.0409 54.2352 49.4882 54.7616 49.7821C55.288 50.0759 55.8934 50.2019 56.495 50.1427C56.7232 50.1407 56.9509 50.1204 57.1758 50.0822C57.4009 50.1188 57.6284 50.1391 57.8565 50.1427C58.956 50.1298 60.0179 49.7451 60.8655 49.0528Z" fill="#E4BB89"/>
<path d="M90.4041 50.3165C90.1114 50.3165 89.7846 50.3165 89.451 50.3165C89.315 50.3082 89.1786 50.3082 89.0426 50.3165C88.1508 50.3165 87.082 50.3838 85.8498 50.5049C85.1691 50.5789 84.4883 50.6731 83.8076 50.774C83.9165 49.3679 83.9777 47.8676 83.9777 46.2731C83.9777 44.0395 83.8756 41.7857 83.6578 39.5454C83.5094 37.3827 83.2321 35.2306 82.8273 33.1002C82.5946 31.4959 82.1648 29.9257 81.5474 28.4244C81.5121 28.3009 81.4516 28.1859 81.3696 28.0864C81.2877 27.987 81.186 27.9051 81.0709 27.8458C80.8357 27.7236 80.5742 27.659 80.3085 27.6574C80.0706 27.6537 79.8359 27.7117 79.6277 27.8256C79.415 27.7236 79.1832 27.6663 78.9469 27.6574C78.6207 27.6642 78.3055 27.7751 78.0483 27.9736C77.9152 28.0921 77.8116 28.2393 77.7455 28.4038C77.6793 28.5684 77.6525 28.7458 77.6671 28.9222V29.1106L78.239 30.7522C76.6641 34.2506 75.2164 37.3902 73.8957 40.1711C73.3307 41.3551 72.8133 42.4181 72.3436 43.3735C72.4049 42.4114 72.4389 41.5704 72.4389 40.8707C72.4405 39.0499 72.2925 37.2319 71.9964 35.4347C71.8119 33.9123 71.3507 32.4354 70.6349 31.0751C70.4093 30.5551 70.0358 30.111 69.5596 29.7968C69.0834 29.4827 68.5252 29.3121 67.9527 29.3057C67.7361 29.3092 67.521 29.3409 67.3128 29.3999C67.0775 29.3371 66.8349 29.3054 66.5912 29.3057C65.9062 29.3462 65.2441 29.5644 64.6715 29.9381C63.9658 30.3334 63.3022 30.7977 62.6904 31.324C62.1403 31.8182 61.6472 32.371 61.22 32.9723C61.1173 33.1317 61.0306 33.3008 60.9613 33.4769C60.8657 33.584 60.8 33.7138 60.7707 33.8537C60.7707 33.9815 60.8592 34.0421 61.0294 34.0421C61.1996 34.0421 61.54 33.8133 61.9212 33.3693C62.3457 32.8254 62.8172 32.3189 63.3304 31.8555C63.5243 31.6908 63.7367 31.5486 63.9635 31.4317C63.4555 31.9033 62.9991 32.4265 62.6019 32.9925C62.4992 33.1519 62.4126 33.3209 62.3433 33.4971C62.2476 33.6042 62.1819 33.734 62.1526 33.8739C62.1526 34.0017 62.2411 34.0622 62.4113 34.0622C62.5815 34.0622 62.9219 33.8335 63.3031 33.3895C63.7277 32.8455 64.1992 32.3391 64.7123 31.8757C65.0653 31.561 65.4869 31.3308 65.9445 31.2029C66.499 31.3688 66.9673 31.74 67.2515 32.239C67.8199 33.1479 68.2102 34.1544 68.402 35.206C68.6641 36.5188 68.8144 37.8511 68.8513 39.1888C68.933 40.5792 68.9738 41.9472 68.9738 43.2927V48.2847C69.013 48.5071 69.0357 48.7319 69.0419 48.9575C69.06 49.4515 69.2155 49.931 69.4912 50.3434C69.5775 50.4682 69.6906 50.5727 69.8223 50.6495C69.9541 50.7262 70.1014 50.7733 70.2537 50.7875C70.5302 50.7826 70.7959 50.68 71.0025 50.4982C71.1619 50.6684 71.3811 50.7719 71.6152 50.7875C71.8195 50.7803 72.0192 50.7253 72.1979 50.6271C72.3766 50.5288 72.5292 50.3901 72.6431 50.2223C72.9294 49.973 73.1294 49.6413 73.215 49.2737C73.5101 46.8662 74.2459 44.5317 75.3866 42.3845C76.4894 40.0656 77.7261 37.2579 79.0967 33.9613C79.4847 35.5289 79.8387 37.2781 80.1655 39.2224C80.6496 42.2958 80.8773 45.4033 80.8463 48.5135V49.9061C80.8463 50.413 80.8258 50.8974 80.785 51.3593C77.7453 51.9637 74.7995 52.9612 72.0236 54.3263C69.6775 55.5008 67.4523 56.8978 65.3794 58.4975C64.2481 59.3942 63.1791 60.3652 62.1799 61.4039C61.1959 62.4855 60.3373 63.6725 59.6202 64.9427C58.931 66.0903 58.5578 67.3961 58.5378 68.7305C58.5108 69.3771 58.6349 70.0212 58.9005 70.6128C59.1662 71.2043 59.5662 71.7274 60.0695 72.1414C61.1956 73.0717 62.6333 73.5517 64.0996 73.487C64.3038 73.487 64.5217 73.487 64.7327 73.4533C64.9438 73.4197 65.2093 73.487 65.4611 73.487C66.7744 73.4625 68.0726 73.205 69.2938 72.7268C70.8322 72.1937 72.2769 71.4264 73.5758 70.4528C75.9105 68.6124 77.8834 66.3639 79.3962 63.8192C81.316 60.9128 82.7229 57.0376 83.6169 52.1936C84.6789 51.9379 85.7273 51.7294 86.7484 51.5612C87.7696 51.393 88.8588 51.3257 89.8799 51.245C90.7785 51.1575 91.2414 50.9489 91.2414 50.6126C91.2414 50.404 90.9623 50.3165 90.4041 50.3165ZM75.2572 40.1441C74.3723 42.001 73.5962 43.5753 72.929 44.8872C73.2286 44.0866 73.6098 43.2456 74.0183 42.3576C75.3389 39.5813 76.8525 36.1052 78.5589 31.9295C78.627 32.1515 78.6814 32.387 78.7495 32.6023C77.4969 35.3607 76.3056 37.8769 75.2572 40.1441ZM77.0885 62.7629C75.1252 65.8856 72.4007 68.4717 69.1644 70.2846C68.2018 70.8697 67.1708 71.3373 66.0942 71.6772C65.5138 71.8638 64.9165 71.9945 64.3107 72.0674C63.6185 72.0014 62.9688 71.7076 62.4658 71.2332C62.1622 70.9385 61.9257 70.5833 61.7719 70.1912C61.6182 69.7991 61.5507 69.3791 61.574 68.9592C61.6025 67.8486 61.9089 66.7622 62.4658 65.7971C63.1015 64.6914 63.8521 63.6542 64.7055 62.7024C65.5899 61.753 66.5286 60.8545 67.517 60.0113C69.6471 58.2433 71.9637 56.7073 74.4267 55.4296C76.4159 54.4435 78.4804 53.6135 80.6012 52.9471C80.1311 56.4242 78.9349 59.7668 77.0885 62.7629Z" fill="#E4BB89"/>
<path d="M51.2064 20.2166C49.5862 18.9922 46.9449 18.3822 43.2824 18.3867H42.7174H41.9209C40.8517 18.3906 39.7835 18.4535 38.7213 18.5751C38.0814 18.6221 37.4075 18.6894 36.7131 18.7769C40.4505 16.1732 43.1394 13.7916 44.7528 11.6253C46.3662 9.45892 47.2444 7.43385 47.2444 5.74518C47.2631 4.88879 47.0471 4.04335 46.6192 3.29839C46.1914 2.55342 45.5677 1.93665 44.8141 1.5134C42.891 0.427538 40.6958 -0.0973332 38.4831 -0.000344552H37.9521C37.6798 -0.000344552 37.4075 -0.000344552 37.1216 -0.000344552C35.0245 0.0283531 32.9401 0.324602 30.9198 0.881013C28.5536 1.51655 26.2693 2.41954 24.1123 3.57211C22.282 4.52951 20.5474 5.65582 18.9317 6.936C17.3017 8.17261 15.7826 9.54567 14.391 11.0399C13.1641 12.3477 12.0928 13.7901 11.1983 15.339C10.4859 16.5711 10.0908 17.9573 10.0478 19.3757C10.0028 20.0374 10.1568 20.6974 10.4903 21.2729C10.5937 21.4413 10.7332 21.5853 10.8991 21.6945C11.065 21.8038 11.2531 21.8758 11.4502 21.9053C11.5838 21.9104 11.7166 21.8815 11.8358 21.8214C11.955 21.7613 12.0566 21.6721 12.1309 21.5622C12.3073 21.7556 12.5497 21.8777 12.8117 21.9053C13.4516 21.9053 13.7715 21.3738 13.7715 20.3243C13.7708 20.2356 13.7498 20.1482 13.7103 20.0686V19.7726C13.6169 18.6677 13.8139 17.5576 14.2821 16.55C14.8778 15.0948 15.6505 13.7167 16.5831 12.446C17.7102 10.9071 18.997 9.4888 20.4226 8.21428C21.9711 6.81018 23.6881 5.59911 25.535 4.6082C27.6112 3.46136 29.822 2.5711 32.118 1.95745C33.823 1.50009 35.5743 1.23156 37.3394 1.15683C38.8885 1.17862 40.4074 1.58339 41.7575 2.3342C42.3783 2.63321 42.9001 3.1008 43.2618 3.68224C43.6235 4.26368 43.8101 4.93492 43.7998 5.61736C43.7998 7.26342 42.6924 9.28176 40.4777 11.6724C38.263 14.063 34.5483 16.7429 29.3337 19.712C29.1436 19.7741 28.9769 19.8915 28.8554 20.0487C28.734 20.206 28.6634 20.3958 28.6529 20.5934C28.6529 20.9769 28.932 21.1653 29.4834 21.1653C29.7142 21.1456 29.9423 21.1028 30.1642 21.0374C30.3523 21.1432 30.5677 21.1923 30.7837 21.1787C31.0144 21.1591 31.2425 21.1163 31.4645 21.0509C33.036 20.4714 34.6619 20.0477 36.3183 19.7861C37.8229 19.5036 39.3483 19.3416 40.8793 19.3017C42.2267 19.3262 43.5662 19.5114 44.8686 19.8533C46.1361 20.1115 47.3111 20.6991 48.2724 21.5555C48.706 21.9585 49.0451 22.4504 49.2662 22.9966C49.4873 23.5428 49.5849 24.1301 49.5522 24.7175C49.4998 25.8557 49.2174 26.972 48.7217 28.0007C48.0373 29.5046 47.1784 30.9247 46.162 32.2324C44.1255 34.9287 41.787 37.3888 39.1911 39.5657C36.2609 42.0261 33.0402 44.127 29.5992 45.8225C26.231 47.4607 22.6838 48.7112 19.027 49.5497C19.1371 47.7282 19.3438 45.9137 19.6465 44.1137C19.9869 42.0101 20.477 39.7361 21.1169 37.2917C22.8464 36.64 24.6209 36.1116 26.4268 35.7107C28.3975 35.2385 30.4069 34.9413 32.4311 34.8226C33.1015 34.8202 33.7691 34.7366 34.4189 34.5737C34.841 34.4055 35.0589 34.2373 35.0589 34.0691C35.0589 33.9009 34.7593 33.8135 34.1602 33.8135L33.3706 33.8606C33.1819 33.8271 32.9904 33.8113 32.7987 33.8135C30.5619 33.8961 28.3365 34.1707 26.1477 34.6342C24.5862 34.9669 23.0433 35.3801 21.5254 35.8722C22.6818 31.8546 24.0451 27.898 25.6099 24.0178C27.4253 19.4698 29.6945 14.4801 32.4175 9.04852C32.5303 8.7881 32.5971 8.51048 32.6149 8.22773C32.6225 8.03586 32.586 7.84479 32.5082 7.66884C32.4304 7.4929 32.3133 7.33666 32.1656 7.21184C31.8829 6.96785 31.5199 6.83393 31.1445 6.83509C30.9077 6.83342 30.674 6.88884 30.4637 6.99655C30.2535 6.88884 30.0198 6.83342 29.783 6.83509C29.4997 6.82541 29.2198 6.89799 28.9778 7.04387C28.7358 7.18975 28.5424 7.40252 28.4215 7.65588C25.6125 12.7773 23.187 18.0953 21.1646 23.5671C19.498 28.0922 18.1938 32.7397 17.2638 37.4666C15.1012 38.3781 13.0465 39.522 11.137 40.8776C9.60786 41.904 8.2328 43.1384 7.05247 44.5443C6.19296 45.4699 5.67483 46.6552 5.58203 47.9082C5.5984 48.431 5.76271 48.9388 6.05631 49.3741C6.3499 49.8093 6.76104 50.1545 7.24308 50.3705C8.39129 51.0029 10.2066 51.3191 12.6891 51.3191H13.4312H14.0507C14.7723 51.3191 15.5347 51.2855 16.3448 51.2317C16.7124 51.2317 17.189 51.1846 17.7063 51.1375V51.1778L19.0678 51.0298C23.2596 50.4692 27.349 49.3207 31.2126 47.6189C34.8926 46.0245 38.3702 44.008 41.5737 41.611C44.4364 39.529 47.0331 37.1118 49.3071 34.4122C50.5873 32.8796 51.6817 31.2042 52.568 29.4202C53.3154 28.0146 53.7298 26.4594 53.7797 24.8722C53.7889 23.9436 53.5572 23.0282 53.1067 22.2132C52.6563 21.3982 52.002 20.7108 51.2064 20.2166ZM16.3448 44.6048C16.2177 46.5424 16.1746 48.397 16.2155 50.1687C15.5756 50.2494 14.9833 50.3167 14.4251 50.3571C14.1392 50.3974 13.8669 50.4311 13.6014 50.4513C12.5894 50.4587 11.5959 50.1835 10.7354 49.6574C10.3877 49.4583 10.0987 49.1729 9.89696 48.8295C9.69518 48.4861 9.58762 48.0967 9.58489 47.6996C9.58489 46.3944 10.3746 44.9008 11.9539 43.2189C13.4009 41.6862 15.0768 40.3816 16.9235 39.3504C16.6512 41.1669 16.4537 42.9161 16.3448 44.6048Z" fill="#E4BB89"/>
<path d="M49.8323 26.2109H49.8105" stroke="#1C1C1C" stroke-width="0.884824" stroke-miterlimit="10"/>
</g>
<defs>
<clipPath id="clip0_1253_2928">
<rect width="261.023" height="73.4404" fill="white" transform="translate(0.583984)"/>
</clipPath>
</defs>
</svg>
