<svg width="22" height="38" viewBox="0 0 22 38" fill="none" xmlns="http://www.w3.org/2000/svg">
<g id="Group">
<path id="Vector" fill-rule="evenodd" clip-rule="evenodd" d="M0.873047 34.5191V38H21.6248V34.5191H0.873047ZM19.2958 33.069V34.0837H3.20205V33.069H19.2958ZM19.2958 30.168H3.20205C2.47606 30.168 1.88665 30.7204 1.88665 31.4007C1.88665 32.0812 2.47606 32.6336 3.20205 32.6336H19.2958C20.0218 32.6336 20.6112 32.0812 20.6112 31.4007C20.6112 30.7204 20.0218 30.168 19.2958 30.168ZM15.8724 14.5041H6.62548C6.86925 20.7522 5.79889 25.5727 3.45359 29.7325H19.0443C17.412 26.8376 16.3973 23.6224 16.0134 19.8286C15.9857 19.5554 15.8854 18.1744 15.8685 17.7514C15.8272 16.7124 15.8284 15.6315 15.8724 14.5041ZM5.67802 14.0687H16.8198H16.8284C17.5504 14.0644 18.1353 13.5137 18.1353 12.8358C18.1353 12.1555 17.5458 11.6031 16.8198 11.6031H5.67802C4.95203 11.6031 4.36262 12.1555 4.36262 12.8358C4.36262 13.5163 4.95203 14.0687 5.67802 14.0687ZM8.89358 11.1676C6.64423 10.2986 5.05905 8.22217 5.05905 5.80149C5.05905 4.78167 5.3404 3.82296 5.83428 2.98981C5.96951 2.76181 6.6319 1.93032 6.82516 1.74523C7.94916 0.668562 9.51644 0 11.2489 0C14.6653 0 17.4388 2.5996 17.4388 5.80149C17.4388 8.22217 15.8536 10.2986 13.6043 11.1676H8.89358Z" fill="white"/>
</g>
</svg>
