<svg width="21" height="47" viewBox="0 0 21 47" fill="none" xmlns="http://www.w3.org/2000/svg">
<g id="Group">
<path id="Vector" d="M2.38281 36.0029V37.3055H18.5109V36.0029C13.1385 36.0029 7.76064 36.0029 2.38281 36.0029Z" fill="white"/>
<path id="Vector_2" d="M17.5056 38.0654H3.39624C3.89688 42.7493 1.19451 41.3545 1.11914 44.9474H19.7827C19.7074 41.3653 17.0265 42.7873 17.5056 38.0654Z" fill="white"/>
<path id="Vector_3" d="M0.12793 45.6973V46.9998H20.7725V45.6973H0.12793Z" fill="white"/>
<path id="Vector_4" d="M10.4477 3.13867C8.9189 3.13867 6.33496 3.94736 6.33496 5.85239C6.33496 6.23231 6.45339 6.59052 6.6741 6.92159C7.25549 7.12783 8.00376 6.86189 8.0845 6.40056C8.11142 6.23773 8.21908 6.12376 8.33751 6.10748C8.61206 6.07491 8.88122 6.04235 9.15038 6.00978C9.31726 5.9935 9.45722 6.15089 9.46799 6.35714C9.85558 7.60545 11.3898 6.99215 11.4275 6.35714C11.4436 6.14547 11.5836 5.9935 11.7559 6.00978C12.025 6.03692 12.2942 6.06948 12.558 6.10748C12.6925 6.12376 12.7948 6.25402 12.8163 6.41684C12.9132 6.9433 13.7692 7.08441 14.2267 6.92159C14.4421 6.59052 14.5605 6.23231 14.5605 5.85239C14.5605 3.94736 11.9766 3.13867 10.4477 3.13867Z" fill="white"/>
<path id="Vector_5" d="M12.3106 6.82619C12.1922 6.80991 12.0684 6.79363 11.9446 6.78277C11.4762 8.06364 9.41984 8.06364 8.9515 6.77734C8.83307 6.79363 8.70926 6.80991 8.58544 6.82619C8.19247 7.79227 6.8036 7.97138 6.07148 7.4015L5.33398 7.65659C6.39986 9.5779 7.10506 11.6403 7.16428 13.795C9.35524 13.795 11.5462 13.795 13.7318 13.795C13.7964 11.6403 14.4962 9.5779 15.5675 7.65659C15.3198 7.56432 15.0776 7.47748 14.83 7.4015C14.0171 8.03108 12.5098 7.83026 12.3106 6.82619Z" fill="white"/>
<path id="Vector_6" d="M14.1564 14.5693H6.74373C5.90933 14.5693 5.93086 15.8556 6.74373 15.8556H14.1564C14.9854 15.8556 14.9693 14.5693 14.1564 14.5693Z" fill="white"/>
<path id="Vector_7" d="M5.51619 16.6172C4.68179 16.6172 4.70332 17.9035 5.51619 17.9035H15.3836C16.2126 17.9035 16.1965 16.6172 15.3836 16.6172H5.51619Z" fill="white"/>
<path id="Vector_8" d="M4.99373 18.6758C4.15933 18.6758 4.18086 19.9621 4.99373 19.9621H15.9055C16.7345 19.9621 16.7184 18.6758 15.9055 18.6758C12.2664 18.6758 8.63277 18.6758 4.99373 18.6758Z" fill="white"/>
<path id="Vector_9" d="M11.2283 0.32475C10.5339 -0.369961 9.34961 0.123935 9.34961 1.1063C9.34961 2.09409 10.5339 2.58799 11.2283 1.89328C11.6536 1.45908 11.6536 0.758944 11.2283 0.32475Z" fill="white"/>
<path id="Vector_10" d="M4.67676 35.2523H16.2184C14.4742 30.3948 14.5765 25.6403 14.2427 20.7285H6.6524C6.31864 25.6403 6.41553 30.3948 4.67676 35.2523Z" fill="white"/>
</g>
</svg>
